<svg version="1.1" id="Layer_1" xmlns="http://www.w3.org/2000/svg" xmlns:xlink="http://www.w3.org/1999/xlink" x="0px" y="0px"
	 width="100%" viewBox="0 0 1667 1667" enable-background="new 0 0 1667 1667" xml:space="preserve">
<path fill="#FFFFFF" opacity="1.000000" stroke="none" 
	d="
M933.000000,1668.000000 
	C622.000122,1668.000000 311.500183,1668.000000 1.000208,1668.000000 
	C1.000139,1112.333618 1.000139,556.667175 1.000069,1.000581 
	C556.666260,1.000387 1112.332520,1.000387 1667.999023,1.000194 
	C1667.999390,556.666077 1667.999390,1112.332153 1667.999756,1667.999146 
	C1423.166626,1668.000000 1178.333374,1668.000000 933.000000,1668.000000 
M1659.059204,925.808716 
	C1659.379150,922.715027 1659.763062,919.626404 1660.008545,916.526794 
	C1661.357788,899.493835 1663.565063,882.471069 1663.812622,865.420654 
	C1664.313110,830.961731 1664.927246,796.457886 1661.043457,762.090149 
	C1660.084839,753.607239 1660.046753,745.011353 1658.897461,736.560974 
	C1656.880493,721.732361 1654.598755,706.927673 1651.934326,692.202271 
	C1648.992065,675.942139 1645.823120,659.708069 1642.170776,643.594604 
	C1634.701904,610.642273 1625.406006,578.183960 1612.922607,546.764404 
	C1603.206909,522.311096 1593.061401,498.007111 1582.295898,474.000458 
	C1576.072266,460.121857 1568.496704,446.821381 1561.065308,433.520111 
	C1552.937622,418.972382 1544.705566,404.449158 1535.755737,390.401489 
	C1516.600830,360.335785 1496.155396,331.167328 1472.716309,304.215576 
	C1461.287842,291.074280 1450.465942,277.323517 1438.208374,265.003937 
	C1418.349243,245.044556 1397.766846,225.782776 1377.030151,206.726929 
	C1365.471069,196.104919 1353.407959,185.922089 1340.813232,176.562286 
	C1322.327271,162.824249 1303.593384,149.321915 1284.170654,136.968323 
	C1262.602417,123.250099 1240.533936,110.197845 1217.972656,98.190613 
	C1187.842651,82.155235 1156.588867,68.473557 1124.495361,56.653019 
	C1096.424805,46.314213 1068.062378,37.069511 1039.008911,30.004324 
	C1022.976257,26.105526 1006.882812,22.415813 990.718567,19.112370 
	C978.782532,16.673035 966.725586,14.733899 954.653076,13.079016 
	C942.342041,11.391429 929.962769,10.138320 917.583374,9.029466 
	C900.731750,7.520020 883.861755,5.375698 866.981750,5.196939 
	C831.358826,4.819693 795.679993,3.788180 760.150940,7.957027 
	C752.003052,8.913070 743.749512,9.011196 735.621948,10.088508 
	C722.718750,11.798855 709.843506,13.789629 697.024841,16.050049 
	C681.857056,18.724726 666.661987,21.378195 651.661621,24.834589 
	C634.666870,28.750517 617.838501,33.412609 601.002075,37.986938 
	C563.988708,48.043171 528.225769,61.640141 493.342072,77.437744 
	C474.748993,85.857895 456.570923,95.267418 438.589417,104.943779 
	C421.780304,113.989243 405.081421,123.360474 389.040253,133.685501 
	C360.313629,152.175613 332.207245,171.636154 306.413086,194.151627 
	C287.562256,210.606354 268.710205,227.088226 250.505936,244.244781 
	C238.841400,255.237976 228.250351,267.384766 217.374771,279.195496 
	C209.915436,287.296265 202.432999,295.422180 195.601395,304.044342 
	C183.571884,319.226807 171.893173,334.693756 160.317337,350.227692 
	C138.483795,379.526764 119.373863,410.598114 102.186142,442.783844 
	C92.042801,461.778259 82.728348,481.277954 74.171928,501.040039 
	C65.073387,522.054199 56.893227,543.495056 49.067070,565.024048 
	C38.569675,593.901367 30.798841,623.613831 24.071697,653.575806 
	C21.337933,665.751770 19.155058,678.060669 17.043976,690.364380 
	C15.117033,701.594849 13.489391,712.881836 11.977840,724.177063 
	C10.180240,737.609863 8.481453,751.060547 7.057415,764.536987 
	C6.090250,773.689758 5.229644,782.893860 5.094180,792.086365 
	C4.799249,812.100159 4.606484,832.131104 5.104962,852.136719 
	C5.610484,872.425110 6.915133,892.696106 8.043463,912.965027 
	C8.453336,920.327820 9.093371,927.700256 10.107155,935.001831 
	C11.874469,947.730408 13.793618,960.446594 16.050774,973.096313 
	C18.955891,989.377258 21.725622,1005.712036 25.496719,1021.802673 
	C33.570297,1056.251221 42.998276,1090.349609 56.053257,1123.296631 
	C64.317558,1144.153442 72.764038,1164.963867 82.001022,1185.400879 
	C89.209000,1201.348511 97.401260,1216.885864 105.813271,1232.245605 
	C114.672989,1248.422729 123.733505,1264.547119 133.738190,1280.027588 
	C152.281570,1308.720093 171.634964,1336.899536 194.208847,1362.653687 
	C210.812271,1381.596313 227.266357,1400.708984 244.688843,1418.881348 
	C257.703430,1432.455933 272.086945,1444.727661 285.998718,1457.428589 
	C293.763000,1464.517456 301.502380,1471.692505 309.793793,1478.132324 
	C325.333649,1490.202148 341.177063,1501.888306 357.055481,1513.513672 
	C384.956421,1533.941162 414.512604,1551.774780 445.045166,1567.906128 
	C476.393646,1584.468628 508.593475,1599.208740 541.903992,1611.542725 
	C571.772339,1622.602173 602.010376,1632.383911 632.938293,1639.915894 
	C651.179382,1644.358276 669.582031,1648.173096 687.991272,1651.875366 
	C698.509827,1653.990845 709.157959,1655.542236 719.802307,1656.928711 
	C729.865967,1658.239258 739.993225,1659.088867 750.106323,1659.985840 
	C765.967102,1661.392456 781.826172,1663.562866 797.709900,1663.799438 
	C824.457581,1664.198120 851.237183,1663.732300 877.977966,1662.854736 
	C894.703003,1662.305786 911.424744,1660.729614 928.068481,1658.893677 
	C944.577698,1657.072510 961.072021,1654.821289 977.418457,1651.896240 
	C996.541077,1648.474121 1015.568604,1644.433228 1034.507935,1640.095459 
	C1062.237793,1633.744263 1089.537598,1625.725830 1116.015381,1615.333984 
	C1142.157471,1605.073975 1168.108398,1594.268799 1193.766235,1582.855591 
	C1208.549316,1576.279785 1222.822266,1568.440552 1236.898438,1560.421631 
	C1254.756958,1550.248169 1272.753296,1540.144287 1289.657104,1528.509644 
	C1313.215698,1512.294556 1336.282837,1495.275513 1358.681030,1477.493042 
	C1376.431396,1463.400513 1393.229126,1448.035889 1409.760620,1432.502686 
	C1423.430786,1419.657959 1436.173462,1405.817627 1449.166382,1392.264404 
	C1455.088989,1386.086670 1460.959839,1379.803711 1466.270264,1373.105713 
	C1480.239624,1355.486328 1494.123169,1337.788940 1507.611572,1319.800659 
	C1528.941406,1291.355347 1547.641846,1261.175537 1564.433472,1229.876221 
	C1574.227051,1211.621094 1583.568359,1193.047974 1591.798340,1174.048462 
	C1601.927612,1150.664307 1611.748657,1127.038696 1619.759521,1102.873169 
	C1628.945068,1075.164551 1636.222656,1046.810059 1643.861938,1018.609680 
	C1646.609741,1008.465576 1648.118164,997.974976 1649.976807,987.603943 
	C1651.812378,977.362244 1653.499878,967.090210 1655.022827,956.797607 
	C1656.502319,946.797852 1657.690796,936.755005 1659.059204,925.808716 
z"/>
<path fill="#1F3D61" opacity="1.000000" stroke="none" 
	d="
M1659.033081,926.269897 
	C1657.690796,936.755005 1656.502319,946.797852 1655.022827,956.797607 
	C1653.499878,967.090210 1651.812378,977.362244 1649.976807,987.603943 
	C1648.118164,997.974976 1646.609741,1008.465576 1643.861938,1018.609680 
	C1636.222656,1046.810059 1628.945068,1075.164551 1619.759521,1102.873169 
	C1611.748657,1127.038696 1601.927612,1150.664307 1591.798340,1174.048462 
	C1583.568359,1193.047974 1574.227051,1211.621094 1564.433472,1229.876221 
	C1547.641846,1261.175537 1528.941406,1291.355347 1507.611572,1319.800659 
	C1494.123169,1337.788940 1480.239624,1355.486328 1466.270264,1373.105713 
	C1460.959839,1379.803711 1455.088989,1386.086670 1449.166382,1392.264404 
	C1436.173462,1405.817627 1423.430786,1419.657959 1409.760620,1432.502686 
	C1393.229126,1448.035889 1376.431396,1463.400513 1358.681030,1477.493042 
	C1336.282837,1495.275513 1313.215698,1512.294556 1289.657104,1528.509644 
	C1272.753296,1540.144287 1254.756958,1550.248169 1236.898438,1560.421631 
	C1222.822266,1568.440552 1208.549316,1576.279785 1193.766235,1582.855591 
	C1168.108398,1594.268799 1142.157471,1605.073975 1116.015381,1615.333984 
	C1089.537598,1625.725830 1062.237793,1633.744263 1034.507935,1640.095459 
	C1015.568604,1644.433228 996.541077,1648.474121 977.418457,1651.896240 
	C961.072021,1654.821289 944.577698,1657.072510 928.068481,1658.893677 
	C911.424744,1660.729614 894.703003,1662.305786 877.977966,1662.854736 
	C851.237183,1663.732300 824.457581,1664.198120 797.709900,1663.799438 
	C781.826172,1663.562866 765.967102,1661.392456 750.106323,1659.985840 
	C739.993225,1659.088867 729.865967,1658.239258 719.802307,1656.928711 
	C709.157959,1655.542236 698.509827,1653.990845 687.991272,1651.875366 
	C669.582031,1648.173096 651.179382,1644.358276 632.938293,1639.915894 
	C602.010376,1632.383911 571.772339,1622.602173 541.903992,1611.542725 
	C508.593475,1599.208740 476.393646,1584.468628 445.045166,1567.906128 
	C414.512604,1551.774780 384.956421,1533.941162 357.055481,1513.513672 
	C341.177063,1501.888306 325.333649,1490.202148 309.793793,1478.132324 
	C301.502380,1471.692505 293.763000,1464.517456 285.998718,1457.428589 
	C272.086945,1444.727661 257.703430,1432.455933 244.688843,1418.881348 
	C227.266357,1400.708984 210.812271,1381.596313 194.208847,1362.653687 
	C171.634964,1336.899536 152.281570,1308.720093 133.738190,1280.027588 
	C123.733505,1264.547119 114.672989,1248.422729 105.813271,1232.245605 
	C97.401260,1216.885864 89.209000,1201.348511 82.001022,1185.400879 
	C72.764038,1164.963867 64.317558,1144.153442 56.053257,1123.296631 
	C42.998276,1090.349609 33.570297,1056.251221 25.496719,1021.802673 
	C21.725622,1005.712036 18.955891,989.377258 16.050774,973.096313 
	C13.793618,960.446594 11.874469,947.730408 10.107155,935.001831 
	C9.093371,927.700256 8.453336,920.327820 8.043463,912.965027 
	C6.915133,892.696106 5.610484,872.425110 5.104962,852.136719 
	C4.606484,832.131104 4.799249,812.100159 5.094180,792.086365 
	C5.229644,782.893860 6.090250,773.689758 7.057415,764.536987 
	C8.481453,751.060547 10.180240,737.609863 11.977840,724.177063 
	C13.489391,712.881836 15.117033,701.594849 17.043976,690.364380 
	C19.155058,678.060669 21.337933,665.751770 24.071697,653.575806 
	C30.798841,623.613831 38.569675,593.901367 49.067070,565.024048 
	C56.893227,543.495056 65.073387,522.054199 74.171928,501.040039 
	C82.728348,481.277954 92.042801,461.778259 102.186142,442.783844 
	C119.373863,410.598114 138.483795,379.526764 160.317337,350.227692 
	C171.893173,334.693756 183.571884,319.226807 195.601395,304.044342 
	C202.432999,295.422180 209.915436,287.296265 217.374771,279.195496 
	C228.250351,267.384766 238.841400,255.237976 250.505936,244.244781 
	C268.710205,227.088226 287.562256,210.606354 306.413086,194.151627 
	C332.207245,171.636154 360.313629,152.175613 389.040253,133.685501 
	C405.081421,123.360474 421.780304,113.989243 438.589417,104.943779 
	C456.570923,95.267418 474.748993,85.857895 493.342072,77.437744 
	C528.225769,61.640141 563.988708,48.043171 601.002075,37.986938 
	C617.838501,33.412609 634.666870,28.750517 651.661621,24.834589 
	C666.661987,21.378195 681.857056,18.724726 697.024841,16.050049 
	C709.843506,13.789629 722.718750,11.798855 735.621948,10.088508 
	C743.749512,9.011196 752.003052,8.913070 760.150940,7.957027 
	C795.679993,3.788180 831.358826,4.819693 866.981750,5.196939 
	C883.861755,5.375698 900.731750,7.520020 917.583374,9.029466 
	C929.962769,10.138320 942.342041,11.391429 954.653076,13.079016 
	C966.725586,14.733899 978.782532,16.673035 990.718567,19.112370 
	C1006.882812,22.415813 1022.976257,26.105526 1039.008911,30.004324 
	C1068.062378,37.069511 1096.424805,46.314213 1124.495361,56.653019 
	C1156.588867,68.473557 1187.842651,82.155235 1217.972656,98.190613 
	C1240.533936,110.197845 1262.602417,123.250099 1284.170654,136.968323 
	C1303.593384,149.321915 1322.327271,162.824249 1340.813232,176.562286 
	C1353.407959,185.922089 1365.471069,196.104919 1377.030151,206.726929 
	C1397.766846,225.782776 1418.349243,245.044556 1438.208374,265.003937 
	C1450.465942,277.323517 1461.287842,291.074280 1472.716309,304.215576 
	C1496.155396,331.167328 1516.600830,360.335785 1535.755737,390.401489 
	C1544.705566,404.449158 1552.937622,418.972382 1561.065308,433.520111 
	C1568.496704,446.821381 1576.072266,460.121857 1582.295898,474.000458 
	C1593.061401,498.007111 1603.206909,522.311096 1612.922607,546.764404 
	C1625.406006,578.183960 1634.701904,610.642273 1642.170776,643.594604 
	C1645.823120,659.708069 1648.992065,675.942139 1651.934326,692.202271 
	C1654.598755,706.927673 1656.880493,721.732361 1658.897461,736.560974 
	C1660.046753,745.011353 1660.084839,753.607239 1661.043457,762.090149 
	C1664.927246,796.457886 1664.313110,830.961731 1663.812622,865.420654 
	C1663.565063,882.471069 1661.357788,899.493835 1660.008545,916.526794 
	C1659.763062,919.626404 1659.379150,922.715027 1659.033081,926.269897 
M772.944885,436.323456 
	C768.199402,433.391693 763.593811,433.745178 758.588623,437.291595 
	C757.724976,437.885071 756.861328,438.478546 756.535217,438.605011 
	C756.332153,437.801453 756.018555,436.284637 755.941772,436.296509 
	C751.878052,436.925873 747.770386,437.462250 743.835938,438.594452 
	C742.918091,438.858582 742.125854,441.176453 742.080750,442.575317 
	C741.888672,448.533112 741.940491,454.501373 742.011841,460.464508 
	C742.126526,470.048401 742.326965,479.631287 742.434265,489.500000 
	C742.434265,489.500000 742.228210,489.705444 742.109192,490.499146 
	C742.148804,490.763672 742.188477,491.028229 742.433044,491.476196 
	C742.433044,491.476196 742.492188,491.744751 742.129639,492.650177 
	C742.250610,496.211975 742.371643,499.773773 742.476929,504.101654 
	C742.482117,505.635284 742.487305,507.168884 742.145569,509.371674 
	C742.436096,510.196442 742.726624,511.021210 743.939514,511.971405 
	C748.626221,511.930603 753.312927,511.889801 758.928528,511.981750 
	C771.283813,511.939819 783.639038,511.897888 796.932434,511.879303 
	C810.038147,511.877350 823.143860,511.875427 837.124695,512.019653 
	C861.468201,511.945984 885.811707,511.872253 911.063110,511.942352 
	C938.038513,511.942352 965.013977,511.942352 992.530884,511.942352 
	C992.530884,510.059326 992.530945,508.434021 992.530945,506.808716 
	C992.530945,493.977112 992.670837,481.143036 992.440613,468.315552 
	C992.376465,464.742126 993.584045,463.113586 996.817505,461.719391 
	C1015.429626,453.694214 1033.953491,445.462006 1052.437134,437.144226 
	C1054.195068,436.353180 1055.468872,434.486633 1057.412598,432.713196 
	C1060.771729,439.024445 1064.465576,445.964722 1068.155762,452.897919 
	C1070.455688,452.377869 1072.665771,451.878143 1075.761108,451.178284 
	C1072.483032,444.336426 1069.374023,437.847412 1066.210449,431.244385 
	C1082.012207,424.241699 1097.833252,417.230499 1114.149780,409.999695 
	C1113.164917,409.376587 1113.032837,409.267700 1112.882080,409.201141 
	C1032.005737,373.531067 951.135925,337.846252 870.199219,302.313904 
	C868.458740,301.549805 865.700195,301.969147 863.834839,302.788574 
	C784.273865,337.737549 704.760132,372.793915 625.245361,407.848022 
	C624.016968,408.389587 622.849121,409.068665 620.911011,410.065002 
	C660.127563,427.347076 698.483459,444.249908 737.531250,461.457642 
	C737.531250,453.326752 737.674927,446.040894 737.460876,438.765625 
	C737.374512,435.832672 738.357727,434.537018 741.201538,434.161072 
	C759.013306,431.806366 776.770691,428.951172 794.631714,427.078705 
	C824.674255,423.929138 854.808533,424.201447 885.039673,426.572937 
	C885.039673,426.572937 885.011047,427.067596 884.073730,427.132874 
	C883.575562,427.140167 883.076965,427.164673 882.579285,427.152313 
	C847.835205,426.289215 813.257751,428.386078 778.834106,433.082153 
	C777.894348,433.210388 777.081543,434.269501 775.428345,435.047974 
	C774.842224,435.548248 774.256165,436.048492 772.944885,436.323456 
M235.833420,1094.500000 
	C235.833420,1110.583984 235.833420,1126.668091 235.833420,1142.705811 
	C274.577698,1142.705811 312.653503,1142.705811 351.228271,1142.705811 
	C351.228271,1027.313477 351.228271,912.214539 351.228271,797.115540 
	C352.218262,798.149597 352.637695,799.209351 353.040558,800.275452 
	C374.653717,857.472351 396.293884,914.659119 417.799805,971.896301 
	C418.969940,975.010437 420.293640,976.118652 423.738495,976.096863 
	C451.237061,975.923340 478.737793,975.916138 506.236176,976.103577 
	C509.768860,976.127625 510.984711,974.862000 512.132568,971.804443 
	C533.450073,915.021301 554.888855,858.283691 576.316589,801.541931 
	C576.871826,800.071533 577.589478,798.662476 578.231384,797.224792 
	C578.464844,797.281494 578.698303,797.338196 578.931763,797.394897 
	C578.931763,912.446228 578.931763,1027.497559 578.931763,1142.688721 
	C617.491516,1142.688721 655.713379,1142.688721 693.974121,1142.688721 
	C693.974121,933.920288 693.974121,725.463135 693.974121,516.474609 
	C691.989075,516.474609 690.193298,516.474670 688.397461,516.474670 
	C653.731201,516.474670 619.064697,516.537048 584.399048,516.390137 
	C580.385010,516.373108 578.399353,517.360352 576.820190,521.388245 
	C540.613159,613.740479 504.222992,706.020874 467.853882,798.309570 
	C467.039948,800.374939 466.074158,802.380493 464.833099,805.200195 
	C463.971222,803.058289 463.481689,801.863647 463.008575,800.662659 
	C426.287292,707.441467 389.555847,614.224304 352.896393,520.978882 
	C351.668488,517.855591 350.322906,516.343689 346.529755,516.363770 
	C311.197815,516.550964 275.864532,516.471985 240.531616,516.484253 
	C239.074203,516.484802 237.616806,516.625183 235.833405,516.717285 
	C235.833405,709.206543 235.833405,901.353271 235.833420,1094.500000 
M1357.771973,521.819275 
	C1357.357056,520.103149 1356.942261,518.387024 1356.581543,516.895142 
	C1356.035522,516.704468 1355.878296,516.601501 1355.720947,516.601379 
	C1299.061279,516.554504 1242.401611,516.492859 1185.742310,516.618774 
	C1184.512939,516.621460 1182.426880,518.618835 1182.187012,519.946960 
	C1175.684937,555.956177 1169.376465,592.000305 1163.026123,628.036926 
	C1154.827759,674.561218 1146.619995,721.083801 1138.418823,767.607544 
	C1130.275635,813.803040 1122.145752,860.000793 1113.991333,906.194336 
	C1106.126709,950.747070 1098.221436,995.292725 1090.365479,1039.847046 
	C1084.330444,1074.075317 1078.344360,1108.312256 1072.312134,1142.684326 
	C1110.898804,1142.684326 1149.312012,1142.684326 1187.719360,1142.684326 
	C1214.946533,988.271790 1242.119507,834.166870 1269.292603,680.062012 
	C1269.582031,680.057495 1269.871460,680.052979 1270.161011,680.048462 
	C1297.364990,834.302368 1324.568970,988.556335 1351.750854,1142.684570 
	C1390.439941,1142.684570 1428.671631,1142.684570 1467.191040,1142.684570 
	C1464.105103,1125.304321 1461.059814,1108.283447 1458.063599,1091.253906 
	C1448.898682,1039.159668 1439.769287,987.058960 1430.594360,934.966370 
	C1421.737061,884.676025 1412.839355,834.392822 1403.960815,784.106140 
	C1394.792725,732.178528 1385.614868,680.252625 1376.463379,628.321960 
	C1370.257324,593.105103 1364.089600,557.881409 1357.771973,521.819275 
M749.998657,897.500000 
	C749.998657,979.244385 749.998657,1060.988770 749.998657,1142.908813 
	C838.857605,1142.908813 927.738220,1142.908813 1016.787415,1142.908813 
	C1016.787415,1104.576660 1016.787415,1066.504272 1016.787415,1027.963379 
	C966.343201,1027.963379 916.110168,1027.963379 865.828247,1027.963379 
	C865.828247,974.114319 865.828247,920.734497 865.828247,866.905396 
	C907.033325,866.905396 947.940857,866.905396 988.821289,866.905396 
	C988.821289,828.246033 988.821289,790.037842 988.821289,751.838501 
	C908.929077,751.838501 829.384399,751.838501 749.998657,751.838501 
	C749.998657,800.303833 749.998657,848.401917 749.998657,897.500000 
M749.472778,621.459595 
	C749.472778,624.896667 749.472778,628.333740 749.472778,631.744873 
	C829.887939,631.744873 909.644531,631.744873 989.575562,631.744873 
	C989.575562,593.422913 989.575562,555.357300 989.575562,517.062134 
	C909.551758,517.062134 829.791626,517.062134 749.473083,517.062134 
	C749.473083,551.593384 749.473083,586.031677 749.472778,621.459595 
M768.472046,1230.500977 
	C768.472046,1224.404907 768.472046,1218.308716 768.472046,1212.378418 
	C763.217346,1212.378418 758.648987,1212.378418 753.659180,1212.378418 
	C753.659180,1221.447021 753.659180,1230.139160 753.659180,1239.822388 
	C747.083984,1230.934570 741.193176,1222.883179 735.173523,1214.929321 
	C734.260132,1213.722290 732.819397,1212.271362 731.500122,1212.137207 
	C727.772278,1211.757935 723.980835,1212.004639 720.331055,1212.004639 
	C720.331055,1230.353149 720.331055,1248.083984 720.331055,1265.800049 
	C725.114197,1265.800049 729.562927,1265.800049 734.792236,1265.800049 
	C734.792236,1256.529053 734.792236,1247.433472 734.792236,1237.115234 
	C741.812256,1246.618042 747.898254,1254.948730 754.119934,1263.176636 
	C755.021667,1264.369019 756.501099,1265.717896 757.840393,1265.869263 
	C761.232605,1266.252808 764.697083,1265.996704 768.471741,1265.996704 
	C768.471741,1254.118164 768.471741,1242.809448 768.472046,1230.500977 
M1257.472046,1235.500122 
	C1257.472046,1227.738159 1257.472046,1219.976196 1257.472046,1212.378418 
	C1252.217407,1212.378418 1247.649048,1212.378418 1242.659180,1212.378418 
	C1242.659180,1221.446899 1242.659180,1230.139038 1242.659180,1239.822266 
	C1236.083984,1230.934448 1230.193115,1222.883179 1224.173462,1214.929321 
	C1223.260010,1213.722412 1221.819458,1212.271362 1220.500244,1212.137085 
	C1216.772461,1211.757935 1212.980835,1212.004639 1209.331055,1212.004639 
	C1209.331055,1230.353027 1209.331055,1248.083984 1209.331055,1265.800049 
	C1214.114136,1265.800049 1218.562866,1265.800049 1223.791992,1265.800049 
	C1223.791992,1256.529175 1223.791992,1247.433594 1223.791992,1237.115112 
	C1230.812134,1246.617920 1236.898071,1254.948486 1243.119873,1263.176147 
	C1244.021606,1264.368530 1245.500732,1265.717773 1246.839966,1265.869263 
	C1250.232300,1266.252930 1253.696777,1265.996704 1257.471802,1265.996704 
	C1257.471802,1255.784912 1257.471802,1246.142578 1257.472046,1235.500122 
M324.998566,1256.464355 
	C324.998566,1259.569458 324.998566,1262.674561 324.998566,1265.836426 
	C330.060028,1265.836426 334.514404,1265.836426 339.731110,1265.836426 
	C339.731110,1256.583740 339.731110,1247.477417 339.731110,1237.039307 
	C346.779724,1246.576904 352.844360,1254.905762 359.085327,1263.100220 
	C360.060272,1264.380371 361.756378,1265.675171 363.261414,1265.871338 
	C366.489410,1266.292236 369.810303,1266.000366 373.170044,1266.000366 
	C373.170044,1247.745605 373.170044,1229.998413 373.170044,1212.350586 
	C368.289276,1212.350586 363.717865,1212.350586 358.721191,1212.350586 
	C358.721191,1221.396606 358.721191,1230.095703 358.721191,1239.893433 
	C352.107880,1230.960815 346.240875,1222.916382 340.203674,1215.001587 
	C339.216858,1213.707886 337.559021,1212.309570 336.073456,1212.135254 
	C332.514832,1211.717896 328.874084,1212.000610 325.432434,1212.000610 
	C325.196960,1212.869629 325.041748,1213.176147 325.041229,1213.482788 
	C325.018524,1227.480347 325.009338,1241.478027 324.998566,1256.464355 
M1151.653198,1230.093750 
	C1147.749878,1219.163696 1139.775146,1213.223267 1128.554688,1211.301270 
	C1114.210938,1208.844360 1100.250732,1216.144409 1095.427734,1228.591797 
	C1090.693604,1240.809937 1094.873901,1254.750977 1105.381470,1261.787598 
	C1115.828003,1268.783203 1130.986328,1268.776611 1141.223145,1261.771606 
	C1150.960083,1255.108643 1154.700439,1244.275513 1151.653198,1230.093750 
M1072.386719,524.789856 
	C1070.517944,543.560791 1066.654785,561.859375 1059.813477,579.503113 
	C1058.867798,581.942200 1059.008179,584.802429 1058.609863,587.731323 
	C1062.489624,587.919556 1065.487915,587.867981 1068.423340,588.272095 
	C1070.624268,588.575134 1073.021240,586.434265 1075.101929,588.770874 
	C1075.164429,588.841003 1076.638550,587.986877 1077.072388,587.316345 
	C1077.742432,586.280945 1078.082031,585.031677 1078.561890,583.873108 
	C1078.764038,583.918823 1078.966309,583.964600 1079.168457,584.010315 
	C1079.168457,585.559814 1079.168457,587.109253 1079.168457,588.898499 
	C1081.034790,589.073303 1082.784790,589.237244 1084.962402,589.441223 
	C1091.686035,554.261597 1089.527344,519.597717 1083.183960,484.868774 
	C1079.812500,485.505951 1077.104736,486.017700 1074.539795,486.502441 
	C1073.850708,499.050629 1073.168945,511.466003 1072.386719,524.789856 
M619.997314,1252.491821 
	C619.997314,1256.920654 619.997314,1261.349609 619.997314,1265.671387 
	C625.354492,1265.671387 630.083496,1265.671387 635.075073,1265.671387 
	C635.075073,1260.211792 635.075073,1255.080933 635.075073,1250.060059 
	C639.027832,1248.452759 641.165771,1249.973755 642.753784,1253.353149 
	C644.447205,1256.956909 646.426453,1260.439087 648.488831,1263.848511 
	C649.061157,1264.794678 650.346924,1265.856445 651.349243,1265.902222 
	C656.070496,1266.117554 660.807068,1265.998047 666.110168,1265.998047 
	C662.365479,1259.082764 658.997681,1252.863525 655.586731,1246.564575 
	C662.741333,1241.101196 665.575073,1234.307495 663.196289,1225.762451 
	C661.046997,1218.042114 655.671326,1213.218872 647.983215,1212.551392 
	C638.804016,1211.754639 629.502869,1212.363647 619.997314,1212.363647 
	C619.997314,1225.561646 619.997314,1238.528320 619.997314,1252.491821 
M842.968201,1213.025635 
	C836.032898,1230.549683 829.097534,1248.073730 822.000427,1266.006592 
	C825.170105,1266.006592 827.659424,1266.006714 830.148682,1266.006714 
	C832.758057,1266.006714 835.367432,1266.006592 837.904846,1266.006592 
	C839.098145,1262.738403 840.115540,1259.952271 841.191101,1257.006592 
	C844.482544,1257.006592 847.635864,1257.006714 850.789124,1257.006714 
	C859.884155,1257.006714 859.880310,1257.008057 863.190674,1265.316650 
	C863.288391,1265.561768 863.659973,1265.697632 863.624390,1265.670410 
	C868.959106,1265.670410 873.997986,1265.670410 879.405884,1265.670410 
	C878.960876,1264.331909 878.702332,1263.391724 878.341309,1262.492554 
	C873.144226,1249.549316 867.934570,1236.610962 862.725281,1223.672485 
	C857.780212,1211.390381 857.778809,1211.389282 844.339111,1212.042236 
	C844.014404,1212.058105 843.695801,1212.198364 842.968201,1213.025635 
M1334.756348,1257.006592 
	C1336.419800,1257.006592 1338.083252,1257.006714 1339.746704,1257.006714 
	C1348.936768,1257.006714 1348.932983,1257.008057 1352.169434,1265.272339 
	C1352.266479,1265.519897 1352.628296,1265.663818 1352.670044,1265.697510 
	C1357.921387,1265.697510 1362.971680,1265.697510 1368.384521,1265.697510 
	C1367.964355,1264.385620 1367.724976,1263.440430 1367.364868,1262.543701 
	C1362.170532,1249.604980 1356.958740,1236.673218 1351.753662,1223.738770 
	C1346.810791,1211.455688 1346.812012,1211.453857 1333.421143,1212.040283 
	C1333.096191,1212.054565 1332.776367,1212.183228 1332.194336,1212.319214 
	C1325.228271,1229.988403 1318.208008,1247.794556 1311.139404,1265.723633 
	C1316.816162,1265.723633 1321.901733,1265.723633 1326.457031,1265.723633 
	C1329.612305,1262.914185 1327.108154,1256.208008 1334.756348,1257.006592 
M563.369507,1264.976807 
	C563.369507,1261.055420 563.369507,1257.134033 563.369507,1252.737183 
	C556.218140,1252.737183 549.646851,1252.737183 543.219116,1252.737183 
	C543.219116,1249.966675 543.219116,1247.686401 543.219116,1244.855225 
	C549.140747,1244.855225 554.857483,1244.855225 560.474121,1244.855225 
	C560.474121,1240.553467 560.474121,1236.816406 560.474121,1232.669678 
	C554.528564,1232.669678 548.926697,1232.669678 543.186951,1232.669678 
	C543.186951,1229.986694 543.186951,1227.722656 543.186951,1224.907959 
	C549.742065,1224.907959 556.129822,1224.907959 562.458191,1224.907959 
	C562.458191,1220.291748 562.458191,1216.238892 562.458191,1212.265015 
	C550.835938,1212.265015 539.579041,1212.265015 528.274048,1212.265015 
	C528.274048,1230.252686 528.274048,1247.973022 528.274048,1265.752930 
	C539.998413,1265.752930 551.447998,1265.752930 563.369507,1264.976807 
M444.502136,1211.997437 
	C439.101440,1211.997437 433.700745,1211.997437 428.483276,1211.997437 
	C428.483276,1216.904785 428.483276,1220.984253 428.483276,1225.471436 
	C433.369781,1225.471436 437.964966,1225.471436 442.985443,1225.471436 
	C442.985443,1239.115967 442.985443,1252.345703 442.985443,1265.776855 
	C448.146118,1265.776855 452.869781,1265.776855 458.027191,1265.776855 
	C458.027191,1252.328979 458.027191,1239.098145 458.027191,1225.301270 
	C463.171356,1225.301270 467.890839,1225.301270 472.569214,1225.301270 
	C472.569214,1220.624512 472.569214,1216.525879 472.569214,1211.997437 
	C463.381744,1211.997437 454.441650,1211.997437 444.502136,1211.997437 
M967.823486,1219.381348 
	C967.823486,1217.092529 967.823486,1214.803589 967.823486,1212.373169 
	C952.726013,1212.373169 938.062195,1212.373169 923.443909,1212.373169 
	C923.443909,1216.837280 923.443909,1220.922363 923.443909,1225.407715 
	C928.300903,1225.407715 932.907959,1225.407715 938.114807,1225.407715 
	C938.114807,1239.166626 938.114807,1252.529175 938.114807,1265.623047 
	C943.461182,1265.623047 948.193542,1265.623047 953.167969,1265.623047 
	C953.167969,1252.134521 953.167969,1239.024536 953.167969,1225.343506 
	C958.149597,1225.343506 962.874023,1225.343506 967.823425,1225.343506 
	C967.823425,1223.279053 967.823425,1221.790527 967.823486,1219.381348 
M1437.182495,1237.494141 
	C1437.182495,1229.088623 1437.182495,1220.682983 1437.182495,1212.256836 
	C1431.811890,1212.256836 1427.074097,1212.256836 1422.237793,1212.256836 
	C1422.237793,1230.217041 1422.237793,1247.918335 1422.237793,1265.731201 
	C1433.680664,1265.731201 1444.882812,1265.731201 1456.045654,1265.731201 
	C1456.045654,1261.089966 1456.045654,1256.727417 1456.045654,1251.886963 
	C1449.561890,1251.886963 1443.501221,1251.886963 1437.182495,1251.886963 
	C1437.182495,1247.094360 1437.182495,1242.792236 1437.182495,1237.494141 
M1038.179932,1257.464233 
	C1038.179932,1242.420532 1038.179932,1227.376953 1038.179932,1212.226562 
	C1032.872314,1212.226562 1028.138306,1212.226562 1023.360535,1212.226562 
	C1023.360535,1230.259155 1023.360535,1248.062622 1023.360535,1265.687500 
	C1028.469849,1265.687500 1033.214600,1265.687500 1038.179932,1265.687500 
	C1038.179932,1263.069336 1038.179932,1260.759888 1038.179932,1257.464233 
M266.179962,1218.559692 
	C266.179962,1216.472290 266.179962,1214.384888 266.179962,1212.243164 
	C260.835876,1212.243164 256.102844,1212.243164 251.376526,1212.243164 
	C251.376526,1230.292603 251.376526,1248.096191 251.376526,1265.673340 
	C256.505005,1265.673340 261.252625,1265.673340 266.179962,1265.673340 
	C266.179962,1250.081299 266.179962,1234.815430 266.179962,1218.559692 
M1087.273193,475.493011 
	C1090.279175,469.618683 1089.555542,464.121277 1085.086914,459.392731 
	C1081.224365,455.305298 1076.341797,454.092010 1070.912109,455.892120 
	C1065.265625,457.764130 1062.225830,461.843170 1061.543823,467.647156 
	C1060.852173,473.533020 1064.440674,479.417786 1069.892700,481.659698 
	C1076.119751,484.220337 1081.988525,482.337433 1087.273193,475.493011 
z"/>
<path fill="#FFFFFF" opacity="1.000000" stroke="none" 
	d="
M235.833405,1094.000000 
	C235.833405,901.353271 235.833405,709.206543 235.833405,516.717285 
	C237.616806,516.625183 239.074203,516.484802 240.531616,516.484253 
	C275.864532,516.471985 311.197815,516.550964 346.529755,516.363770 
	C350.322906,516.343689 351.668488,517.855591 352.896393,520.978882 
	C389.555847,614.224304 426.287292,707.441467 463.008575,800.662659 
	C463.481689,801.863647 463.971222,803.058289 464.833099,805.200195 
	C466.074158,802.380493 467.039948,800.374939 467.853882,798.309570 
	C504.222992,706.020874 540.613159,613.740479 576.820190,521.388245 
	C578.399353,517.360352 580.385010,516.373108 584.399048,516.390137 
	C619.064697,516.537048 653.731201,516.474670 688.397461,516.474670 
	C690.193298,516.474670 691.989075,516.474609 693.974121,516.474609 
	C693.974121,725.463135 693.974121,933.920288 693.974121,1142.688721 
	C655.713379,1142.688721 617.491516,1142.688721 578.931763,1142.688721 
	C578.931763,1027.497559 578.931763,912.446228 578.931763,797.394897 
	C578.698303,797.338196 578.464844,797.281494 578.231384,797.224792 
	C577.589478,798.662476 576.871826,800.071533 576.316589,801.541931 
	C554.888855,858.283691 533.450073,915.021301 512.132568,971.804443 
	C510.984711,974.862000 509.768860,976.127625 506.236176,976.103577 
	C478.737793,975.916138 451.237061,975.923340 423.738495,976.096863 
	C420.293640,976.118652 418.969940,975.010437 417.799805,971.896301 
	C396.293884,914.659119 374.653717,857.472351 353.040558,800.275452 
	C352.637695,799.209351 352.218262,798.149597 351.228271,797.115540 
	C351.228271,912.214539 351.228271,1027.313477 351.228271,1142.705811 
	C312.653503,1142.705811 274.577698,1142.705811 235.833420,1142.705811 
	C235.833420,1126.668091 235.833420,1110.583984 235.833405,1094.000000 
z"/>
<path fill="#FEFEFF" opacity="1.000000" stroke="none" 
	d="
M1357.838379,522.239990 
	C1364.089600,557.881409 1370.257324,593.105103 1376.463379,628.321960 
	C1385.614868,680.252625 1394.792725,732.178528 1403.960815,784.106140 
	C1412.839355,834.392822 1421.737061,884.676025 1430.594360,934.966370 
	C1439.769287,987.058960 1448.898682,1039.159668 1458.063599,1091.253906 
	C1461.059814,1108.283447 1464.105103,1125.304321 1467.191040,1142.684570 
	C1428.671631,1142.684570 1390.439941,1142.684570 1351.750854,1142.684570 
	C1324.568970,988.556335 1297.364990,834.302368 1270.161011,680.048462 
	C1269.871460,680.052979 1269.582031,680.057495 1269.292603,680.062012 
	C1242.119507,834.166870 1214.946533,988.271790 1187.719360,1142.684326 
	C1149.312012,1142.684326 1110.898804,1142.684326 1072.312134,1142.684326 
	C1078.344360,1108.312256 1084.330444,1074.075317 1090.365479,1039.847046 
	C1098.221436,995.292725 1106.126709,950.747070 1113.991333,906.194336 
	C1122.145752,860.000793 1130.275635,813.803040 1138.418823,767.607544 
	C1146.619995,721.083801 1154.827759,674.561218 1163.026123,628.036926 
	C1169.376465,592.000305 1175.684937,555.956177 1182.187012,519.946960 
	C1182.426880,518.618835 1184.512939,516.621460 1185.742310,516.618774 
	C1242.401611,516.492859 1299.061279,516.554504 1355.720947,516.601379 
	C1355.878296,516.601501 1356.035522,516.704468 1356.581543,516.895142 
	C1356.942261,518.387024 1357.357056,520.103149 1357.838379,522.239990 
z"/>
<path fill="#FEFEFE" opacity="1.000000" stroke="none" 
	d="
M749.998657,897.000000 
	C749.998657,848.401917 749.998657,800.303833 749.998657,751.838501 
	C829.384399,751.838501 908.929077,751.838501 988.821289,751.838501 
	C988.821289,790.037842 988.821289,828.246033 988.821289,866.905396 
	C947.940857,866.905396 907.033325,866.905396 865.828247,866.905396 
	C865.828247,920.734497 865.828247,974.114319 865.828247,1027.963379 
	C916.110168,1027.963379 966.343201,1027.963379 1016.787415,1027.963379 
	C1016.787415,1066.504272 1016.787415,1104.576660 1016.787415,1142.908813 
	C927.738220,1142.908813 838.857605,1142.908813 749.998657,1142.908813 
	C749.998657,1060.988770 749.998657,979.244385 749.998657,897.000000 
z"/>
<path fill="#FEFEFE" opacity="1.000000" stroke="none" 
	d="
M742.228210,489.705444 
	C742.228210,489.705444 742.434265,489.500000 742.641846,489.207642 
	C742.996399,488.628723 743.049927,488.325623 743.466675,487.984009 
	C756.726807,487.249817 769.539978,486.660797 782.321838,485.668945 
	C783.912964,485.545532 785.338379,483.286774 786.909180,481.686737 
	C786.407837,480.540802 785.790649,479.751587 785.314331,478.884979 
	C785.233948,478.738678 785.760986,478.258484 786.331665,477.974304 
	C786.989258,477.550079 787.322510,477.084106 787.795654,476.349457 
	C787.782898,475.750519 787.630310,475.420288 787.377747,474.719910 
	C787.497986,473.892090 787.718201,473.434418 788.328552,472.936646 
	C789.476379,472.906067 790.233948,472.915680 791.133972,473.251221 
	C797.646973,477.315979 803.945068,480.967468 811.910461,479.784851 
	C817.955200,478.887390 824.103882,478.711487 830.193970,478.093262 
	C839.182312,477.180756 848.159668,476.160645 857.584900,475.147949 
	C875.453979,472.513123 892.879944,469.916748 910.305847,467.320343 
	C910.336060,466.672028 910.366272,466.023682 910.396484,465.375336 
	C905.685608,464.145416 900.974670,462.915497 896.616821,461.777740 
	C898.041077,460.913391 899.956177,459.751068 901.871338,458.588745 
	C901.745300,458.256348 901.619202,457.923920 901.493164,457.591522 
	C892.324402,459.309479 883.155640,461.027466 873.533691,462.794708 
	C867.944519,463.228699 862.807190,463.596771 857.672729,464.001404 
	C844.100281,465.071014 830.529053,466.156464 816.549927,467.193726 
	C814.789734,467.246124 813.437012,467.340454 811.809265,467.339966 
	C811.013855,467.424683 810.493347,467.604218 809.521606,467.784698 
	C806.078186,468.007996 803.086060,468.230286 799.705078,468.365967 
	C796.940063,468.590973 794.563904,468.902588 792.047852,468.855347 
	C791.362244,465.529633 790.816467,462.562775 790.270691,459.595917 
	C790.697205,459.484894 791.123779,459.373871 791.550293,459.262848 
	C790.415344,458.475739 789.280457,457.688629 788.235229,456.598633 
	C788.873901,455.556793 789.422974,454.817902 789.990601,453.678406 
	C789.632324,450.035400 789.389099,446.769135 788.816040,443.561768 
	C788.570740,442.188690 787.063171,440.906769 787.132690,439.638428 
	C787.301453,436.557404 786.968079,434.718201 782.949951,436.208069 
	C780.462341,435.714600 778.335999,435.304535 776.209595,434.894470 
	C777.081543,434.269501 777.894348,433.210388 778.834106,433.082153 
	C813.257751,428.386078 847.835205,426.289215 882.579285,427.152313 
	C883.076965,427.164673 883.575562,427.140167 884.881226,427.324585 
	C891.679565,427.516327 897.670349,427.516327 903.661133,427.516327 
	C903.667114,427.422272 903.673096,427.328217 903.679077,427.234161 
	C897.430908,426.852386 891.182678,426.470581 884.934448,426.088806 
	C854.808533,424.201447 824.674255,423.929138 794.631714,427.078705 
	C776.770691,428.951172 759.013306,431.806366 741.201538,434.161072 
	C738.357727,434.537018 737.374512,435.832672 737.460876,438.765625 
	C737.674927,446.040894 737.531250,453.326752 737.531250,461.457642 
	C698.483459,444.249908 660.127563,427.347076 620.911011,410.065002 
	C622.849121,409.068665 624.016968,408.389587 625.245361,407.848022 
	C704.760132,372.793915 784.273865,337.737549 863.834839,302.788574 
	C865.700195,301.969147 868.458740,301.549805 870.199219,302.313904 
	C951.135925,337.846252 1032.005737,373.531067 1112.882080,409.201141 
	C1113.032837,409.267700 1113.164917,409.376587 1114.149780,409.999695 
	C1097.833252,417.230499 1082.012207,424.241699 1066.210449,431.244385 
	C1069.374023,437.847412 1072.483032,444.336426 1075.761108,451.178284 
	C1072.665771,451.878143 1070.455688,452.377869 1068.155762,452.897919 
	C1064.465576,445.964722 1060.771729,439.024445 1057.412598,432.713196 
	C1055.468872,434.486633 1054.195068,436.353180 1052.437134,437.144226 
	C1033.953491,445.462006 1015.429626,453.694214 996.817505,461.719391 
	C993.584045,463.113586 992.376465,464.742126 992.440613,468.315552 
	C992.670837,481.143036 992.530945,493.977112 992.530945,506.808716 
	C992.530945,508.434021 992.530884,510.059326 992.530884,511.942352 
	C965.013977,511.942352 938.038513,511.942352 910.440613,511.573608 
	C905.132690,509.148376 900.424744,505.318359 895.766174,505.377533 
	C883.230713,505.536774 870.699707,507.205383 858.199768,508.574188 
	C850.850708,509.378906 843.564209,510.754639 836.249573,511.873535 
	C823.143860,511.875427 810.038147,511.877350 796.765869,511.627472 
	C807.751526,509.880493 818.898743,508.346161 830.057495,506.901306 
	C841.045898,505.478485 852.045959,504.146362 863.359741,502.825134 
	C864.107117,502.855042 864.535583,502.834290 865.305786,502.901001 
	C866.780334,502.822937 867.913208,502.657410 869.505005,502.518311 
	C878.400146,501.457581 886.836243,500.370483 895.699097,499.322449 
	C901.223145,498.329803 906.320496,497.298065 911.417908,496.266357 
	C909.800964,495.021942 908.060303,495.045868 907.025208,494.203186 
	C900.541077,488.924561 892.665100,490.604187 885.671143,490.867096 
	C871.123169,491.414062 856.638916,493.657135 841.703979,495.174896 
	C837.654663,495.543976 834.022705,495.884735 830.406372,496.347809 
	C807.725708,499.252136 785.040588,502.124451 762.375061,505.143524 
	C755.857178,506.011749 749.399109,507.329254 742.788086,508.473602 
	C742.662598,508.506470 742.492493,508.702515 742.492493,508.702515 
	C742.487305,507.168884 742.482117,505.635284 742.641296,503.766876 
	C742.805664,503.432098 743.040833,503.203766 743.469238,503.151794 
	C754.902405,501.685852 765.907166,500.271942 777.338318,498.910339 
	C784.459900,497.979889 791.130493,496.763672 797.854736,496.057648 
	C818.895813,493.848297 839.957092,491.831482 861.416565,489.768097 
	C873.855896,488.439545 885.889160,487.082977 898.280640,485.697662 
	C900.718933,484.908112 902.799133,484.147308 904.727539,483.442017 
	C904.123413,482.954102 903.265381,482.261200 902.044617,481.275330 
	C903.449524,480.952148 904.231567,480.772278 905.014954,480.592072 
	C903.903503,480.002258 902.779724,479.405884 901.590149,478.774597 
	C902.568054,477.858337 903.376282,477.101135 905.214600,475.378784 
	C886.669800,474.665100 869.885925,478.729919 852.470947,480.128723 
	C846.136353,480.549927 840.202820,480.857025 834.312378,481.537201 
	C815.838806,483.670349 797.376892,485.907349 778.919678,488.178741 
	C769.591980,489.326630 760.284058,490.635284 750.532593,491.902710 
	C747.787903,492.050049 745.477783,492.165985 743.044128,492.090637 
	C742.920593,491.899353 742.492188,491.744751 742.492188,491.744751 
	C742.492188,491.744751 742.433044,491.476196 742.469849,491.210510 
	C742.524109,490.796600 742.587463,490.635193 742.549561,490.502869 
	C742.470947,490.228882 742.338501,489.970337 742.228210,489.705444 
M865.371094,447.703217 
	C846.657959,449.410309 827.945312,451.122589 809.231262,452.820129 
	C805.483276,453.160095 801.695251,453.241150 798.000610,453.877136 
	C796.898926,454.066803 796.052307,455.738251 795.088806,456.730713 
	C796.021118,457.613007 796.953430,458.495300 797.459290,460.044098 
	C799.522095,461.378204 801.584412,463.847015 803.647888,463.847992 
	C812.125183,463.852020 820.602844,463.105225 829.891785,462.672394 
	C849.249756,460.718811 868.710266,459.510559 887.820801,455.759216 
	C887.793396,455.220306 887.765930,454.681366 887.738525,454.142426 
	C882.555542,453.719208 877.372559,453.295959 871.881531,452.518097 
	C871.606445,452.270874 871.316650,452.252075 870.182983,452.304291 
	C869.902832,452.278473 869.622681,452.252686 869.556030,451.524445 
	C868.359619,450.368744 867.163208,449.213043 865.371094,447.703217 
M833.940674,446.061920 
	C839.991211,445.488586 846.136169,445.390228 852.066345,444.211334 
	C858.280457,442.975952 864.132568,439.913940 870.331421,440.615265 
	C858.708313,434.884949 846.152954,434.167053 832.333130,436.095459 
	C840.361023,437.392487 847.391174,438.528320 854.421326,439.664154 
	C854.348877,440.144104 854.276367,440.624023 854.203918,441.103943 
	C850.778564,440.813477 847.353210,440.523010 843.077148,440.103119 
	C829.862549,439.490479 816.651672,438.682312 803.430237,438.433807 
	C800.854492,438.385406 798.237915,440.512604 795.640137,441.636322 
	C797.967346,443.943085 800.240234,446.309692 802.665527,448.508179 
	C803.176086,448.971039 804.263367,448.996674 805.055298,448.919800 
	C814.397827,448.013092 823.734802,447.048492 833.940674,446.061920 
M771.027344,352.126282 
	C796.562073,341.713104 822.487305,332.142334 847.478394,320.556580 
	C861.465881,314.072021 874.141174,312.439911 887.971558,319.273956 
	C891.812927,321.172119 896.188782,321.988464 900.319458,323.301117 
	C890.121521,317.502533 879.558472,312.763947 868.919128,308.203278 
	C867.906799,307.769318 866.289856,308.159424 865.167725,308.653320 
	C833.084412,322.775330 801.028625,336.959625 768.259216,351.189178 
	C760.789978,354.518799 753.320679,357.848419 745.851440,361.178040 
	C746.025940,361.588013 746.200439,361.997986 746.375000,362.407959 
	C754.350830,359.024841 762.326721,355.641724 771.027344,352.126282 
M742.840027,362.916290 
	C743.584900,362.863892 744.329773,362.811523 745.074707,362.759155 
	C745.037292,362.497742 744.999817,362.236328 744.962402,361.974884 
	C744.292480,362.113220 743.622498,362.251526 742.840027,362.916290 
z"/>
<path fill="#FEFEFF" opacity="1.000000" stroke="none" 
	d="
M749.472900,620.964783 
	C749.473083,586.031677 749.473083,551.593384 749.473083,517.062134 
	C829.791626,517.062134 909.551758,517.062134 989.575562,517.062134 
	C989.575562,555.357300 989.575562,593.422913 989.575562,631.744873 
	C909.644531,631.744873 829.887939,631.744873 749.472778,631.744873 
	C749.472778,628.333740 749.472778,624.896667 749.472900,620.964783 
z"/>
<path fill="#FEFEFE" opacity="1.000000" stroke="none" 
	d="
M768.471924,1231.000854 
	C768.471741,1242.809448 768.471741,1254.118164 768.471741,1265.996704 
	C764.697083,1265.996704 761.232605,1266.252808 757.840393,1265.869263 
	C756.501099,1265.717896 755.021667,1264.369019 754.119934,1263.176636 
	C747.898254,1254.948730 741.812256,1246.618042 734.792236,1237.115234 
	C734.792236,1247.433472 734.792236,1256.529053 734.792236,1265.800049 
	C729.562927,1265.800049 725.114197,1265.800049 720.331055,1265.800049 
	C720.331055,1248.083984 720.331055,1230.353149 720.331055,1212.004639 
	C723.980835,1212.004639 727.772278,1211.757935 731.500122,1212.137207 
	C732.819397,1212.271362 734.260132,1213.722290 735.173523,1214.929321 
	C741.193176,1222.883179 747.083984,1230.934570 753.659180,1239.822388 
	C753.659180,1230.139160 753.659180,1221.447021 753.659180,1212.378418 
	C758.648987,1212.378418 763.217346,1212.378418 768.472046,1212.378418 
	C768.472046,1218.308716 768.472046,1224.404907 768.471924,1231.000854 
z"/>
<path fill="#FEFEFE" opacity="1.000000" stroke="none" 
	d="
M1257.471924,1236.000244 
	C1257.471802,1246.142578 1257.471802,1255.784912 1257.471802,1265.996704 
	C1253.696777,1265.996704 1250.232300,1266.252930 1246.839966,1265.869263 
	C1245.500732,1265.717773 1244.021606,1264.368530 1243.119873,1263.176147 
	C1236.898071,1254.948486 1230.812134,1246.617920 1223.791992,1237.115112 
	C1223.791992,1247.433594 1223.791992,1256.529175 1223.791992,1265.800049 
	C1218.562866,1265.800049 1214.114136,1265.800049 1209.331055,1265.800049 
	C1209.331055,1248.083984 1209.331055,1230.353027 1209.331055,1212.004639 
	C1212.980835,1212.004639 1216.772461,1211.757935 1220.500244,1212.137085 
	C1221.819458,1212.271362 1223.260010,1213.722412 1224.173462,1214.929321 
	C1230.193115,1222.883179 1236.083984,1230.934448 1242.659180,1239.822266 
	C1242.659180,1230.139038 1242.659180,1221.446899 1242.659180,1212.378418 
	C1247.649048,1212.378418 1252.217407,1212.378418 1257.472046,1212.378418 
	C1257.472046,1219.976196 1257.472046,1227.738159 1257.471924,1236.000244 
z"/>
<path fill="#FEFEFE" opacity="1.000000" stroke="none" 
	d="
M324.998596,1255.969971 
	C325.009338,1241.478027 325.018524,1227.480347 325.041229,1213.482788 
	C325.041748,1213.176147 325.196960,1212.869629 325.432434,1212.000610 
	C328.874084,1212.000610 332.514832,1211.717896 336.073456,1212.135254 
	C337.559021,1212.309570 339.216858,1213.707886 340.203674,1215.001587 
	C346.240875,1222.916382 352.107880,1230.960815 358.721191,1239.893433 
	C358.721191,1230.095703 358.721191,1221.396606 358.721191,1212.350586 
	C363.717865,1212.350586 368.289276,1212.350586 373.170044,1212.350586 
	C373.170044,1229.998413 373.170044,1247.745605 373.170044,1266.000366 
	C369.810303,1266.000366 366.489410,1266.292236 363.261414,1265.871338 
	C361.756378,1265.675171 360.060272,1264.380371 359.085327,1263.100220 
	C352.844360,1254.905762 346.779724,1246.576904 339.731110,1237.039307 
	C339.731110,1247.477417 339.731110,1256.583740 339.731110,1265.836426 
	C334.514404,1265.836426 330.060028,1265.836426 324.998566,1265.836426 
	C324.998566,1262.674561 324.998566,1259.569458 324.998596,1255.969971 
z"/>
<path fill="#FCFCFD" opacity="1.000000" stroke="none" 
	d="
M1151.772949,1230.482178 
	C1154.700439,1244.275513 1150.960083,1255.108643 1141.223145,1261.771606 
	C1130.986328,1268.776611 1115.828003,1268.783203 1105.381470,1261.787598 
	C1094.873901,1254.750977 1090.693604,1240.809937 1095.427734,1228.591797 
	C1100.250732,1216.144409 1114.210938,1208.844360 1128.554688,1211.301270 
	C1139.775146,1213.223267 1147.749878,1219.163696 1151.772949,1230.482178 
M1131.786011,1250.479004 
	C1137.709106,1245.314697 1139.240601,1238.092163 1135.744873,1231.809937 
	C1132.531738,1226.035767 1125.243408,1223.454712 1118.449097,1225.685181 
	C1112.012207,1227.798218 1108.240356,1233.893066 1109.071289,1240.838379 
	C1110.297607,1251.087646 1120.706665,1255.829224 1131.786011,1250.479004 
z"/>
<path fill="#FAFBFC" opacity="1.000000" stroke="none" 
	d="
M1072.437012,524.335632 
	C1073.168945,511.466003 1073.850708,499.050629 1074.539795,486.502441 
	C1077.104736,486.017700 1079.812500,485.505951 1083.183960,484.868774 
	C1089.527344,519.597717 1091.686035,554.261597 1084.962402,589.441223 
	C1082.784790,589.237244 1081.034790,589.073303 1079.168457,588.898499 
	C1079.168457,587.109253 1079.168457,585.559814 1079.168457,584.010315 
	C1078.966309,583.964600 1078.764038,583.918823 1078.561890,583.873108 
	C1078.082031,585.031677 1077.742432,586.280945 1077.072388,587.316345 
	C1076.638550,587.986877 1075.164429,588.841003 1075.101929,588.770874 
	C1073.021240,586.434265 1070.624268,588.575134 1068.423340,588.272095 
	C1065.487915,587.867981 1062.489624,587.919556 1058.609863,587.731323 
	C1059.008179,584.802429 1058.867798,581.942200 1059.813477,579.503113 
	C1066.654785,561.859375 1070.517944,543.560791 1072.437012,524.335632 
M1078.906616,580.963562 
	C1078.906616,581.637573 1078.906616,582.311523 1078.906616,582.985535 
	C1079.290894,582.897827 1079.675049,582.810120 1080.059326,582.722412 
	C1079.722534,581.882629 1079.385620,581.042786 1078.906616,580.963562 
z"/>
<path fill="#FEFEFE" opacity="1.000000" stroke="none" 
	d="
M619.997314,1251.993408 
	C619.997314,1238.528320 619.997314,1225.561646 619.997314,1212.363647 
	C629.502869,1212.363647 638.804016,1211.754639 647.983215,1212.551392 
	C655.671326,1213.218872 661.046997,1218.042114 663.196289,1225.762451 
	C665.575073,1234.307495 662.741333,1241.101196 655.586731,1246.564575 
	C658.997681,1252.863525 662.365479,1259.082764 666.110168,1265.998047 
	C660.807068,1265.998047 656.070496,1266.117554 651.349243,1265.902222 
	C650.346924,1265.856445 649.061157,1264.794678 648.488831,1263.848511 
	C646.426453,1260.439087 644.447205,1256.956909 642.753784,1253.353149 
	C641.165771,1249.973755 639.027832,1248.452759 635.075073,1250.060059 
	C635.075073,1255.080933 635.075073,1260.211792 635.075073,1265.671387 
	C630.083496,1265.671387 625.354492,1265.671387 619.997314,1265.671387 
	C619.997314,1261.349609 619.997314,1256.920654 619.997314,1251.993408 
M634.994324,1234.333496 
	C635.453674,1235.211548 635.860718,1236.808472 636.381165,1236.846436 
	C639.006104,1237.037231 641.934998,1237.487061 644.220032,1236.544067 
	C646.132935,1235.754883 648.561829,1233.110474 648.478333,1231.399292 
	C648.380676,1229.400513 646.170959,1226.587280 644.213928,1225.820068 
	C641.532715,1224.768677 638.226868,1225.310303 634.993408,1225.160278 
	C634.993408,1228.421143 634.993408,1230.903687 634.994324,1234.333496 
z"/>
<path fill="#FCFCFD" opacity="1.000000" stroke="none" 
	d="
M843.171265,1212.653076 
	C843.695801,1212.198364 844.014404,1212.058105 844.339111,1212.042236 
	C857.778809,1211.389282 857.780212,1211.390381 862.725281,1223.672485 
	C867.934570,1236.610962 873.144226,1249.549316 878.341309,1262.492554 
	C878.702332,1263.391724 878.960876,1264.331909 879.405884,1265.670410 
	C873.997986,1265.670410 868.959106,1265.670410 863.624390,1265.670410 
	C863.659973,1265.697632 863.288391,1265.561768 863.190674,1265.316650 
	C859.880310,1257.008057 859.884155,1257.006714 850.789124,1257.006714 
	C847.635864,1257.006714 844.482544,1257.006592 841.191101,1257.006592 
	C840.115540,1259.952271 839.098145,1262.738403 837.904846,1266.006592 
	C835.367432,1266.006592 832.758057,1266.006714 830.148682,1266.006714 
	C827.659424,1266.006714 825.170105,1266.006592 822.000427,1266.006592 
	C829.097534,1248.073730 836.032898,1230.549683 843.171265,1212.653076 
M848.899475,1233.550293 
	C847.575928,1237.264404 846.252319,1240.978516 844.871948,1244.852051 
	C848.860046,1244.852051 852.402405,1244.852051 856.459167,1244.852051 
	C854.500366,1239.453979 852.709351,1234.518433 850.659180,1228.868530 
	C849.935791,1230.736084 849.524719,1231.797241 848.899475,1233.550293 
z"/>
<path fill="#FCFCFD" opacity="1.000000" stroke="none" 
	d="
M1334.295166,1257.006592 
	C1327.108154,1256.208008 1329.612305,1262.914185 1326.457031,1265.723633 
	C1321.901733,1265.723633 1316.816162,1265.723633 1311.139404,1265.723633 
	C1318.208008,1247.794556 1325.228271,1229.988403 1332.194336,1212.319214 
	C1332.776367,1212.183228 1333.096191,1212.054565 1333.421143,1212.040283 
	C1346.812012,1211.453857 1346.810791,1211.455688 1351.753662,1223.738770 
	C1356.958740,1236.673218 1362.170532,1249.604980 1367.364868,1262.543701 
	C1367.724976,1263.440430 1367.964355,1264.385620 1368.384521,1265.697510 
	C1362.971680,1265.697510 1357.921387,1265.697510 1352.670044,1265.697510 
	C1352.628296,1265.663818 1352.266479,1265.519897 1352.169434,1265.272339 
	C1348.932983,1257.008057 1348.936768,1257.006714 1339.746704,1257.006714 
	C1338.083252,1257.006714 1336.419800,1257.006592 1334.295166,1257.006592 
M1335.004150,1241.613159 
	C1334.715088,1242.671387 1334.425903,1243.729614 1334.130371,1244.811523 
	C1337.933105,1244.811523 1341.450195,1244.811523 1345.457642,1244.811523 
	C1343.482056,1239.397949 1341.686646,1234.477905 1339.633423,1228.851440 
	C1337.965332,1233.382935 1336.595459,1237.104004 1335.004150,1241.613159 
z"/>
<path fill="#FEFEFE" opacity="1.000000" stroke="none" 
	d="
M563.133545,1265.364868 
	C551.447998,1265.752930 539.998413,1265.752930 528.274048,1265.752930 
	C528.274048,1247.973022 528.274048,1230.252686 528.274048,1212.265015 
	C539.579041,1212.265015 550.835938,1212.265015 562.458191,1212.265015 
	C562.458191,1216.238892 562.458191,1220.291748 562.458191,1224.907959 
	C556.129822,1224.907959 549.742065,1224.907959 543.186951,1224.907959 
	C543.186951,1227.722656 543.186951,1229.986694 543.186951,1232.669678 
	C548.926697,1232.669678 554.528564,1232.669678 560.474121,1232.669678 
	C560.474121,1236.816406 560.474121,1240.553467 560.474121,1244.855225 
	C554.857483,1244.855225 549.140747,1244.855225 543.219116,1244.855225 
	C543.219116,1247.686401 543.219116,1249.966675 543.219116,1252.737183 
	C549.646851,1252.737183 556.218140,1252.737183 563.369507,1252.737183 
	C563.369507,1257.134033 563.369507,1261.055420 563.133545,1265.364868 
z"/>
<path fill="#FEFEFE" opacity="1.000000" stroke="none" 
	d="
M445.001831,1211.997437 
	C454.441650,1211.997437 463.381744,1211.997437 472.569214,1211.997437 
	C472.569214,1216.525879 472.569214,1220.624512 472.569214,1225.301270 
	C467.890839,1225.301270 463.171356,1225.301270 458.027191,1225.301270 
	C458.027191,1239.098145 458.027191,1252.328979 458.027191,1265.776855 
	C452.869781,1265.776855 448.146118,1265.776855 442.985443,1265.776855 
	C442.985443,1252.345703 442.985443,1239.115967 442.985443,1225.471436 
	C437.964966,1225.471436 433.369781,1225.471436 428.483276,1225.471436 
	C428.483276,1220.984253 428.483276,1216.904785 428.483276,1211.997437 
	C433.700745,1211.997437 439.101440,1211.997437 445.001831,1211.997437 
z"/>
<path fill="#FEFEFE" opacity="1.000000" stroke="none" 
	d="
M967.823486,1219.841675 
	C967.823425,1221.790527 967.823425,1223.279053 967.823425,1225.343506 
	C962.874023,1225.343506 958.149597,1225.343506 953.167969,1225.343506 
	C953.167969,1239.024536 953.167969,1252.134521 953.167969,1265.623047 
	C948.193542,1265.623047 943.461182,1265.623047 938.114807,1265.623047 
	C938.114807,1252.529175 938.114807,1239.166626 938.114807,1225.407715 
	C932.907959,1225.407715 928.300903,1225.407715 923.443909,1225.407715 
	C923.443909,1220.922363 923.443909,1216.837280 923.443909,1212.373169 
	C938.062195,1212.373169 952.726013,1212.373169 967.823486,1212.373169 
	C967.823486,1214.803589 967.823486,1217.092529 967.823486,1219.841675 
z"/>
<path fill="#FEFEFE" opacity="1.000000" stroke="none" 
	d="
M1437.182495,1237.992188 
	C1437.182495,1242.792236 1437.182495,1247.094360 1437.182495,1251.886963 
	C1443.501221,1251.886963 1449.561890,1251.886963 1456.045654,1251.886963 
	C1456.045654,1256.727417 1456.045654,1261.089966 1456.045654,1265.731201 
	C1444.882812,1265.731201 1433.680664,1265.731201 1422.237793,1265.731201 
	C1422.237793,1247.918335 1422.237793,1230.217041 1422.237793,1212.256836 
	C1427.074097,1212.256836 1431.811890,1212.256836 1437.182495,1212.256836 
	C1437.182495,1220.682983 1437.182495,1229.088623 1437.182495,1237.992188 
z"/>
<path fill="#E66070" opacity="1.000000" stroke="none" 
	d="
M842.128479,495.203094 
	C856.638916,493.657135 871.123169,491.414062 885.671143,490.867096 
	C892.665100,490.604187 900.541077,488.924561 907.025208,494.203186 
	C908.060303,495.045868 909.800964,495.021942 911.417908,496.266357 
	C906.320496,497.298065 901.223145,498.329803 895.522766,498.993652 
	C893.215149,493.884186 898.283386,497.331177 899.134338,494.472565 
	C888.487305,495.075470 878.076355,495.087677 867.833496,496.406036 
	C857.412231,497.747314 857.484741,498.310669 855.643066,501.106171 
	C857.926575,501.621124 860.483765,502.197784 863.040955,502.774475 
	C852.045959,504.146362 841.045898,505.478485 830.057495,506.901306 
	C818.898743,508.346161 807.751526,509.880493 796.296814,511.615784 
	C783.639038,511.897888 771.283813,511.939819 758.553467,511.558594 
	C761.752686,509.757080 765.244324,508.083282 768.916931,507.056885 
	C779.170471,504.191254 789.939514,507.212006 800.461731,503.417053 
	C807.946472,500.717560 816.765991,501.862488 824.943542,500.898529 
	C832.490112,500.008972 839.974854,498.595642 847.486877,497.413025 
	C847.488220,497.154663 847.489563,496.896332 847.490906,496.637970 
	C845.703430,496.159668 843.915955,495.681366 842.128479,495.203094 
M904.123840,494.129639 
	C903.547668,494.249908 902.971436,494.370178 902.395264,494.490479 
	C902.465576,494.729401 902.535828,494.968323 902.606079,495.207275 
	C903.263977,495.011047 903.921814,494.814789 904.123840,494.129639 
z"/>
<path fill="#FFFFFF" opacity="1.000000" stroke="none" 
	d="
M1038.179932,1257.957275 
	C1038.179932,1260.759888 1038.179932,1263.069336 1038.179932,1265.687500 
	C1033.214600,1265.687500 1028.469849,1265.687500 1023.360535,1265.687500 
	C1023.360535,1248.062622 1023.360535,1230.259155 1023.360535,1212.226562 
	C1028.138306,1212.226562 1032.872314,1212.226562 1038.179932,1212.226562 
	C1038.179932,1227.376953 1038.179932,1242.420532 1038.179932,1257.957275 
z"/>
<path fill="#FFFFFF" opacity="1.000000" stroke="none" 
	d="
M266.179962,1219.054688 
	C266.179962,1234.815430 266.179962,1250.081299 266.179962,1265.673340 
	C261.252625,1265.673340 256.505005,1265.673340 251.376526,1265.673340 
	C251.376526,1248.096191 251.376526,1230.292603 251.376526,1212.243164 
	C256.102844,1212.243164 260.835876,1212.243164 266.179962,1212.243164 
	C266.179962,1214.384888 266.179962,1216.472290 266.179962,1219.054688 
z"/>
<path fill="#FAFBFC" opacity="1.000000" stroke="none" 
	d="
M1087.110840,475.840332 
	C1081.988525,482.337433 1076.119751,484.220337 1069.892700,481.659698 
	C1064.440674,479.417786 1060.852173,473.533020 1061.543823,467.647156 
	C1062.225830,461.843170 1065.265625,457.764130 1070.912109,455.892120 
	C1076.341797,454.092010 1081.224365,455.305298 1085.086914,459.392731 
	C1089.555542,464.121277 1090.279175,469.618683 1087.110840,475.840332 
z"/>
<path fill="#EE828F" opacity="1.000000" stroke="none" 
	d="
M841.703979,495.174896 
	C843.915955,495.681366 845.703430,496.159668 847.490906,496.637970 
	C847.489563,496.896332 847.488220,497.154663 847.486877,497.413025 
	C839.974854,498.595642 832.490112,500.008972 824.943542,500.898529 
	C816.765991,501.862488 807.946472,500.717560 800.461731,503.417053 
	C789.939514,507.212006 779.170471,504.191254 768.916931,507.056885 
	C765.244324,508.083282 761.752686,509.757080 758.089050,511.492188 
	C753.312927,511.889801 748.626221,511.930603 743.469604,511.484711 
	C742.971008,510.145599 742.942322,509.293152 742.913696,508.440735 
	C749.399109,507.329254 755.857178,506.011749 762.375061,505.143524 
	C785.040588,502.124451 807.725708,499.252136 830.406372,496.347809 
	C834.022705,495.884735 837.654663,495.543976 841.703979,495.174896 
M761.259827,508.543182 
	C760.871948,508.425812 760.488464,508.286682 760.092896,508.207916 
	C760.005188,508.190460 759.875061,508.386108 759.764465,508.483643 
	C760.153198,508.602600 760.541931,508.721558 761.259827,508.543182 
z"/>
<path fill="#E66070" opacity="1.000000" stroke="none" 
	d="
M836.687134,511.946594 
	C843.564209,510.754639 850.850708,509.378906 858.199768,508.574188 
	C870.699707,507.205383 883.230713,505.536774 895.766174,505.377533 
	C900.424744,505.318359 905.132690,509.148376 909.986694,511.501709 
	C885.811707,511.872253 861.468201,511.945984 836.687134,511.946594 
z"/>
<path fill="#061553" opacity="1.000000" stroke="none" 
	d="
M755.997681,439.072021 
	C756.861328,438.478546 757.724976,437.885071 759.256165,437.131775 
	C763.633789,437.970123 767.343933,438.968262 770.995911,440.320312 
	C768.817566,441.478119 766.697266,442.282074 764.525879,443.105438 
	C764.046265,444.804840 763.478271,446.817383 762.608459,448.893005 
	C759.858582,449.314209 757.410461,449.672333 754.886719,449.681396 
	C753.383728,447.618134 751.956482,445.903931 750.140564,443.722992 
	C748.559753,444.004974 745.861267,444.486298 743.102295,444.604279 
	C743.112610,443.512543 743.183472,442.784180 743.638916,442.044800 
	C747.336487,441.022095 750.649597,440.010345 754.302368,438.936523 
	C755.093933,438.940308 755.545776,439.006165 755.997681,439.072021 
z"/>
<path fill="#889DB7" opacity="1.000000" stroke="none" 
	d="
M743.254333,442.055786 
	C743.183472,442.784180 743.112610,443.512543 743.044800,445.030884 
	C743.047729,447.376312 743.047729,448.931824 743.047729,450.901703 
	C744.759216,450.693054 745.966309,450.545868 747.134521,450.798859 
	C747.095581,452.314545 747.095581,453.430054 747.095581,454.746704 
	C741.052429,454.511963 743.526855,459.065491 743.027954,462.491699 
	C743.019043,465.272888 743.073914,467.619446 743.086304,470.433533 
	C743.066650,475.943878 743.089539,480.986725 743.081665,486.358215 
	C743.037292,487.126587 743.023621,487.566284 743.010010,488.006012 
	C743.049927,488.325623 742.996399,488.628723 742.670288,489.064941 
	C742.326965,479.631287 742.126526,470.048401 742.011841,460.464508 
	C741.940491,454.501373 741.888672,448.533112 742.080750,442.575317 
	C742.125854,441.176453 742.918091,438.858582 743.835938,438.594452 
	C747.770386,437.462250 751.878052,436.925873 755.941772,436.296509 
	C756.018555,436.284637 756.332153,437.801453 756.266479,438.838501 
	C755.545776,439.006165 755.093933,438.940308 753.890381,438.875183 
	C749.843933,439.935852 746.549133,440.995819 743.254333,442.055786 
z"/>
<path fill="#889DB7" opacity="1.000000" stroke="none" 
	d="
M771.054016,439.966431 
	C767.343933,438.968262 763.633789,437.970123 759.515869,436.942261 
	C763.593811,433.745178 768.199402,433.391693 773.421204,436.715027 
	C775.143555,438.357788 776.389587,439.609009 777.366089,440.830353 
	C776.735657,440.830170 776.374756,440.859802 775.649902,440.857483 
	C773.875305,440.539154 772.464661,440.252777 771.054016,439.966431 
z"/>
<path fill="#254A95" opacity="1.000000" stroke="none" 
	d="
M777.635620,440.860199 
	C776.389587,439.609009 775.143555,438.357788 773.783813,436.827667 
	C774.256165,436.048492 774.842224,435.548248 775.818970,434.971252 
	C778.335999,435.304535 780.462341,435.714600 782.858398,436.648376 
	C783.026367,440.976532 780.536743,441.224762 777.635620,440.860199 
z"/>
<path fill="#889DB7" opacity="1.000000" stroke="none" 
	d="
M884.987061,426.330872 
	C891.182678,426.470581 897.430908,426.852386 903.679077,427.234161 
	C903.673096,427.328217 903.667114,427.422272 903.661133,427.516327 
	C897.670349,427.516327 891.679565,427.516327 885.349915,427.291962 
	C885.011047,427.067596 885.039673,426.572937 884.987061,426.330872 
z"/>
<path fill="#889DB7" opacity="1.000000" stroke="none" 
	d="
M743.040833,503.203766 
	C743.040833,503.203766 742.805664,503.432098 742.649170,503.383850 
	C742.371643,499.773773 742.250610,496.211975 742.310913,492.197449 
	C742.492188,491.744751 742.920593,491.899353 743.011597,492.502502 
	C743.122986,495.063141 743.143311,497.020630 743.109375,499.396332 
	C743.050354,500.944275 743.045593,502.074005 743.040833,503.203766 
z"/>
<path fill="#889DB7" opacity="1.000000" stroke="none" 
	d="
M742.788147,508.473602 
	C742.942322,509.293152 742.971008,510.145599 743.008423,511.421997 
	C742.726624,511.021210 742.436096,510.196442 742.319031,509.037109 
	C742.492493,508.702515 742.662598,508.506470 742.788147,508.473602 
z"/>
<path fill="#254A95" opacity="1.000000" stroke="none" 
	d="
M742.168701,490.102295 
	C742.338501,489.970337 742.470947,490.228882 742.549561,490.502869 
	C742.587463,490.635193 742.524109,490.796600 742.367371,491.118835 
	C742.188477,491.028229 742.148804,490.763672 742.168701,490.102295 
z"/>
<path fill="#E66070" opacity="1.000000" stroke="none" 
	d="
M743.469238,503.151794 
	C743.045593,502.074005 743.050354,500.944275 743.518677,499.393738 
	C750.463135,497.257202 758.278076,499.282104 762.640747,492.964996 
	C758.841614,492.609039 754.904419,492.240143 750.967224,491.871277 
	C760.284058,490.635284 769.591980,489.326630 778.919678,488.178741 
	C797.376892,485.907349 815.838806,483.670349 834.312378,481.537201 
	C840.202820,480.857025 846.136353,480.549927 852.297974,480.362762 
	C852.325256,480.898529 852.085388,481.130157 851.897949,481.398407 
	C851.851501,481.464966 851.967468,481.761292 852.021118,481.764801 
	C854.331543,481.917236 856.643433,482.048462 860.187439,482.253601 
	C856.657898,483.685883 854.324585,484.632721 851.862305,485.631897 
	C853.017883,485.919861 854.036743,486.173737 854.946899,486.400513 
	C827.095032,489.548065 799.259094,492.693787 771.423218,495.839508 
	C771.449341,496.350006 771.475403,496.860504 771.501526,497.371002 
	C773.304993,497.866669 775.108398,498.362335 776.911865,498.858002 
	C765.907166,500.271942 754.902405,501.685852 743.469238,503.151794 
z"/>
<path fill="#EE828F" opacity="1.000000" stroke="none" 
	d="
M777.338318,498.910339 
	C775.108398,498.362335 773.304993,497.866669 771.501526,497.371002 
	C771.475403,496.860504 771.449341,496.350006 771.423218,495.839508 
	C799.259094,492.693787 827.095032,489.548065 854.946899,486.400513 
	C854.036743,486.173737 853.017883,485.919861 851.862305,485.631897 
	C854.324585,484.632721 856.657898,483.685883 860.187439,482.253601 
	C856.643433,482.048462 854.331543,481.917236 852.021118,481.764801 
	C851.967468,481.761292 851.851501,481.464966 851.897949,481.398407 
	C852.085388,481.130157 852.325256,480.898529 852.718750,480.419342 
	C869.885925,478.729919 886.669800,474.665100 905.214600,475.378784 
	C903.376282,477.101135 902.568054,477.858337 901.590149,478.774597 
	C902.779724,479.405884 903.903503,480.002258 905.014954,480.592072 
	C904.231567,480.772278 903.449524,480.952148 902.044617,481.275330 
	C903.265381,482.261200 904.123413,482.954102 904.727539,483.442017 
	C902.799133,484.147308 900.718933,484.908112 898.240967,485.408966 
	C896.531067,484.085358 895.132935,482.016083 893.920837,482.119873 
	C885.563660,482.835297 877.245300,484.004333 868.914490,485.027527 
	C868.924988,485.271545 868.935486,485.515594 868.945923,485.759644 
	C870.637024,485.928467 872.328064,486.097321 874.019104,486.266174 
	C870.035828,487.083771 866.092346,487.478668 862.174561,488.049805 
	C861.714172,488.116913 861.395081,489.153076 861.010498,489.740051 
	C839.957092,491.831482 818.895813,493.848297 797.854736,496.057648 
	C791.130493,496.763672 784.459900,497.979889 777.338318,498.910339 
z"/>
<path fill="#E66070" opacity="1.000000" stroke="none" 
	d="
M816.957336,467.235626 
	C830.529053,466.156464 844.100281,465.071014 857.672729,464.001404 
	C862.807190,463.596771 867.944519,463.228699 873.561401,463.131622 
	C875.461731,463.993866 876.881165,464.568451 878.575317,465.254242 
	C873.380859,470.591217 867.599304,472.100647 860.705688,469.481964 
	C859.600159,469.062012 858.143127,469.415466 856.876770,469.602264 
	C854.130493,470.007416 851.418335,470.677032 848.663879,470.986908 
	C841.257385,471.820160 833.835999,472.521393 826.420532,473.275055 
	C826.413025,473.714355 826.405518,474.153656 826.398010,474.592957 
	C827.926392,475.001495 829.483032,475.839844 830.978027,475.741394 
	C836.366943,475.386597 841.725159,474.476013 847.114685,474.253387 
	C850.438538,474.116058 853.798157,474.845856 857.141724,475.186371 
	C848.159668,476.160645 839.182312,477.180756 830.193970,478.093262 
	C824.103882,478.711487 817.955200,478.887390 811.910461,479.784851 
	C803.945068,480.967468 797.646973,477.315979 791.137695,473.285675 
	C790.998962,472.994202 790.930603,473.007233 791.252808,472.932922 
	C791.628235,472.235352 791.681519,471.612122 791.782471,470.686066 
	C791.949341,469.993561 792.068542,469.603851 792.187744,469.214172 
	C794.563904,468.902588 796.940063,468.590973 799.771484,468.691528 
	C802.037720,474.029205 796.848572,470.761658 796.069702,472.656006 
	C810.375305,475.145508 817.504822,474.375793 821.480591,469.967834 
	C819.981384,469.062256 818.469360,468.148926 816.957336,467.235626 
z"/>
<path fill="#395A9E" opacity="1.000000" stroke="none" 
	d="
M792.047852,468.855347 
	C792.068542,469.603851 791.949341,469.993561 791.511719,470.849640 
	C791.105774,471.879761 791.018188,472.443481 790.930603,473.007233 
	C790.930603,473.007233 790.998962,472.994202 790.995239,472.959717 
	C790.233948,472.915680 789.476379,472.906067 788.054321,472.817749 
	C786.535278,471.627869 785.680664,470.516663 784.813965,469.389740 
	C781.187927,471.623016 777.442444,473.929901 773.747375,476.205750 
	C770.032288,474.239807 766.093811,472.155640 761.216919,469.574860 
	C762.364868,475.335999 763.198486,479.519287 764.165527,484.372437 
	C757.392090,484.905579 750.252258,485.467560 743.112427,486.029541 
	C743.089539,480.986725 743.066650,475.943878 743.479370,470.438110 
	C752.888062,468.105255 761.858826,466.213501 771.371277,466.582855 
	C771.842712,464.721710 772.459473,462.287170 773.389893,459.876556 
	C774.122009,459.878143 774.540466,459.855774 775.295288,459.895325 
	C776.781738,459.700165 777.931885,459.443115 779.114502,459.168884 
	C779.147034,459.151703 779.198792,459.099487 779.535645,459.078979 
	C782.630249,458.339447 785.387878,457.620483 788.145569,456.901489 
	C789.280457,457.688629 790.415344,458.475739 791.550293,459.262848 
	C791.123779,459.373871 790.697205,459.484894 790.270691,459.595917 
	C790.816467,462.562775 791.362244,465.529633 792.047852,468.855347 
M749.149414,475.497589 
	C750.685486,478.541504 753.541565,478.547180 757.838013,474.169312 
	C755.041992,474.355896 752.246033,474.542480 749.149414,475.497589 
z"/>
<path fill="#324D6E" opacity="1.000000" stroke="none" 
	d="
M768.968323,351.133850 
	C801.028625,336.959625 833.084412,322.775330 865.167725,308.653320 
	C866.289856,308.159424 867.906799,307.769318 868.919128,308.203278 
	C879.558472,312.763947 890.121521,317.502533 900.319458,323.301117 
	C896.188782,321.988464 891.812927,321.172119 887.971558,319.273956 
	C874.141174,312.439911 861.465881,314.072021 847.478394,320.556580 
	C822.487305,332.142334 796.562073,341.713104 770.403931,352.052551 
	C769.509766,351.697174 769.239014,351.415497 768.968323,351.133850 
z"/>
<path fill="#EE828F" opacity="1.000000" stroke="none" 
	d="
M857.584900,475.147949 
	C853.798157,474.845856 850.438538,474.116058 847.114685,474.253387 
	C841.725159,474.476013 836.366943,475.386597 830.978027,475.741394 
	C829.483032,475.839844 827.926392,475.001495 826.398010,474.592957 
	C826.405518,474.153656 826.413025,473.714355 826.420532,473.275055 
	C833.835999,472.521393 841.257385,471.820160 848.663879,470.986908 
	C851.418335,470.677032 854.130493,470.007416 856.876770,469.602264 
	C858.143127,469.415466 859.600159,469.062012 860.705688,469.481964 
	C867.599304,472.100647 873.380859,470.591217 878.575317,465.254242 
	C876.881165,464.568451 875.461731,463.993866 874.014526,463.082336 
	C883.155640,461.027466 892.324402,459.309479 901.493164,457.591522 
	C901.619202,457.923920 901.745300,458.256348 901.871338,458.588745 
	C899.956177,459.751068 898.041077,460.913391 896.616821,461.777740 
	C900.974670,462.915497 905.685608,464.145416 910.396484,465.375336 
	C910.366272,466.023682 910.336060,466.672028 910.305847,467.320343 
	C892.879944,469.916748 875.453979,472.513123 857.584900,475.147949 
z"/>
<path fill="#E66070" opacity="1.000000" stroke="none" 
	d="
M872.189575,452.872742 
	C877.372559,453.295959 882.555542,453.719208 887.738525,454.142426 
	C887.765930,454.681366 887.793396,455.220306 887.820801,455.759216 
	C868.710266,459.510559 849.249756,460.718811 829.376953,462.322388 
	C827.328369,461.386475 825.794678,460.800507 823.343262,459.863953 
	C825.463684,458.745270 826.727722,458.078369 827.962708,457.426788 
	C826.971619,456.946075 825.988159,456.469055 825.002380,455.996033 
	C825.000000,456.000000 824.994751,456.008270 825.438538,456.012207 
	C831.277710,456.006134 836.673157,456.009094 842.068359,455.972321 
	C842.886902,455.966736 843.705139,455.783051 844.521851,455.669861 
	C852.795593,454.523682 861.069031,453.374939 869.342529,452.226929 
	C869.622681,452.252686 869.902832,452.278473 870.760376,452.527893 
	C871.337708,452.751465 871.751465,452.897278 871.751465,452.897278 
	C871.751465,452.897278 872.189575,452.872711 872.189575,452.872742 
z"/>
<path fill="#254A95" opacity="1.000000" stroke="none" 
	d="
M743.081665,486.358215 
	C750.252258,485.467560 757.392090,484.905579 764.165527,484.372437 
	C763.198486,479.519287 762.364868,475.335999 761.216919,469.574860 
	C766.093811,472.155640 770.032288,474.239807 773.747375,476.205750 
	C777.442444,473.929901 781.187927,471.623016 784.813965,469.389740 
	C785.680664,470.516663 786.535278,471.627869 787.664124,472.857910 
	C787.718201,473.434418 787.497986,473.892090 787.275146,474.979553 
	C787.400208,475.945618 787.527954,476.281891 787.655762,476.618164 
	C787.322510,477.084106 786.989258,477.550079 786.265259,477.632812 
	C783.255554,477.121155 780.636597,476.992645 776.640869,476.796570 
	C780.896118,478.974701 783.868347,480.496063 786.840576,482.017456 
	C785.338379,483.286774 783.912964,485.545532 782.321838,485.668945 
	C769.539978,486.660797 756.726807,487.249817 743.466614,487.984009 
	C743.023621,487.566284 743.037292,487.126587 743.081665,486.358215 
M770.598206,482.223511 
	C770.867920,477.659515 770.867920,477.659515 766.523987,479.456177 
	C767.838074,480.520782 768.878296,481.363525 770.598206,482.223511 
M765.404907,477.482849 
	C765.404907,477.482849 765.526672,477.410645 765.404907,477.482849 
z"/>
<path fill="#E66070" opacity="1.000000" stroke="none" 
	d="
M833.073181,446.099091 
	C823.734802,447.048492 814.397827,448.013092 805.055298,448.919800 
	C804.263367,448.996674 803.176086,448.971039 802.665527,448.508179 
	C800.240234,446.309692 797.967346,443.943085 795.640137,441.636322 
	C798.237915,440.512604 800.854492,438.385406 803.430237,438.433807 
	C816.651672,438.682312 829.862549,439.490479 843.430176,440.528778 
	C842.002930,441.064789 840.221191,441.156403 838.442627,441.289764 
	C835.612549,441.501953 832.784546,441.741943 829.955627,441.970154 
	C829.931091,442.505676 829.906494,443.041199 829.881958,443.576721 
	C830.945679,444.417511 832.009460,445.258301 833.073181,446.099091 
M809.759583,444.049103 
	C813.149902,443.145477 817.669189,446.067108 819.919678,441.196930 
	C815.072205,443.721375 808.718445,435.798340 803.994873,443.655304 
	C806.042358,443.816406 807.453430,443.927429 809.759583,444.049103 
z"/>
<path fill="#E66070" opacity="1.000000" stroke="none" 
	d="
M797.885742,459.377563 
	C796.953430,458.495300 796.021118,457.613007 795.088806,456.730713 
	C796.052307,455.738251 796.898926,454.066803 798.000610,453.877136 
	C801.695251,453.241150 805.483276,453.160095 809.231262,452.820129 
	C827.945312,451.122589 846.657959,449.410309 865.587280,448.258972 
	C864.808289,449.204773 863.840271,449.830414 862.813660,449.949158 
	C849.842163,451.449615 836.862183,452.877075 823.731750,454.340149 
	C824.232666,455.001740 824.613708,455.505005 824.994751,456.008270 
	C824.994751,456.008270 825.000000,456.000000 824.563721,455.987976 
	C819.298889,456.533691 814.464478,457.044861 809.643860,457.663818 
	C805.715881,458.168152 801.804504,458.801453 797.885742,459.377563 
M815.183472,454.998322 
	C814.096252,455.065247 813.008972,455.132141 811.921753,455.199036 
	C811.932434,455.471375 811.943054,455.743713 811.953735,456.016022 
	C813.626099,455.857788 815.298462,455.699524 816.970825,455.541260 
	C816.766296,455.378021 816.576782,455.187958 816.351440,455.061890 
	C816.222473,454.989685 816.035217,455.021576 815.183472,454.998322 
z"/>
<path fill="#EE828F" opacity="1.000000" stroke="none" 
	d="
M833.506958,446.080505 
	C832.009460,445.258301 830.945679,444.417511 829.881958,443.576721 
	C829.906494,443.041199 829.931091,442.505676 829.955627,441.970154 
	C832.784546,441.741943 835.612549,441.501953 838.442627,441.289764 
	C840.221191,441.156403 842.002930,441.064789 843.855530,440.593475 
	C847.353210,440.523010 850.778564,440.813477 854.203918,441.103943 
	C854.276367,440.624023 854.348877,440.144104 854.421326,439.664154 
	C847.391174,438.528320 840.361023,437.392487 832.333130,436.095459 
	C846.152954,434.167053 858.708313,434.884949 870.331421,440.615265 
	C864.132568,439.913940 858.280457,442.975952 852.066345,444.211334 
	C846.136169,445.390228 839.991211,445.488586 833.506958,446.080505 
M834.788208,444.009918 
	C835.754395,444.258118 836.720581,444.506348 837.686768,444.754578 
	C837.758057,444.298676 837.829285,443.842773 837.900574,443.386871 
	C836.772095,443.386871 835.643555,443.386871 834.788208,444.009918 
z"/>
<path fill="#C73648" opacity="1.000000" stroke="none" 
	d="
M863.359741,502.825134 
	C860.483765,502.197784 857.926575,501.621124 855.643066,501.106171 
	C857.484741,498.310669 857.412231,497.747314 867.833496,496.406036 
	C878.076355,495.087677 888.487305,495.075470 899.134338,494.472565 
	C898.283386,497.331177 893.215149,493.884186 895.096069,498.954590 
	C886.836243,500.370483 878.400146,501.457581 869.372131,502.175720 
	C867.508240,502.142395 866.236145,502.477966 864.964111,502.813568 
	C864.535583,502.834290 864.107117,502.855042 863.359741,502.825134 
z"/>
<path fill="#395A9E" opacity="1.000000" stroke="none" 
	d="
M777.366089,440.830353 
	C780.536743,441.224762 783.026367,440.976532 783.219604,436.731812 
	C786.968079,434.718201 787.301453,436.557404 787.132690,439.638428 
	C787.063171,440.906769 788.570740,442.188690 788.816040,443.561768 
	C789.389099,446.769135 789.632324,450.035400 789.693237,453.535950 
	C786.698914,448.926453 782.880310,449.861328 778.510742,451.809875 
	C775.865234,451.656891 773.586914,451.425049 771.099426,451.171906 
	C771.405273,450.431366 771.702820,449.710815 772.001465,448.603058 
	C773.339661,445.773682 774.676697,443.331573 776.013794,440.889435 
	C776.374756,440.859802 776.735657,440.830170 777.366089,440.830353 
z"/>
<path fill="#EE828F" opacity="1.000000" stroke="none" 
	d="
M797.672485,459.710846 
	C801.804504,458.801453 805.715881,458.168152 809.643860,457.663818 
	C814.464478,457.044861 819.298889,456.533691 824.566040,455.984009 
	C825.988159,456.469055 826.971619,456.946075 827.962708,457.426788 
	C826.727722,458.078369 825.463684,458.745270 823.343262,459.863953 
	C825.794678,460.800507 827.328369,461.386475 828.971191,462.303528 
	C820.602844,463.105225 812.125183,463.852020 803.647888,463.847992 
	C801.584412,463.847015 799.522095,461.378204 797.672485,459.710846 
z"/>
<path fill="#EE828F" opacity="1.000000" stroke="none" 
	d="
M825.438538,456.012207 
	C824.613708,455.505005 824.232666,455.001740 823.731750,454.340149 
	C836.862183,452.877075 849.842163,451.449615 862.813660,449.949158 
	C863.840271,449.830414 864.808289,449.204773 865.885132,448.436035 
	C867.163208,449.213043 868.359619,450.368744 869.449280,451.875671 
	C861.069031,453.374939 852.795593,454.523682 844.521851,455.669861 
	C843.705139,455.783051 842.886902,455.966736 842.068359,455.972321 
	C836.673157,456.009094 831.277710,456.006134 825.438538,456.012207 
z"/>
<path fill="#E66070" opacity="1.000000" stroke="none" 
	d="
M861.416504,489.768066 
	C861.395081,489.153076 861.714172,488.116913 862.174561,488.049805 
	C866.092346,487.478668 870.035828,487.083771 874.019104,486.266174 
	C872.328064,486.097321 870.637024,485.928467 868.945923,485.759644 
	C868.935486,485.515594 868.924988,485.271545 868.914490,485.027527 
	C877.245300,484.004333 885.563660,482.835297 893.920837,482.119873 
	C895.132935,482.016083 896.531067,484.085358 897.882812,485.437714 
	C885.889160,487.082977 873.855896,488.439545 861.416504,489.768066 
z"/>
<path fill="#C73648" opacity="1.000000" stroke="none" 
	d="
M816.549927,467.193726 
	C818.469360,468.148926 819.981384,469.062256 821.480591,469.967834 
	C817.504822,474.375793 810.375305,475.145508 796.069702,472.656006 
	C796.848572,470.761658 802.037720,474.029205 800.160400,468.778137 
	C803.086060,468.230286 806.078186,468.007996 809.631104,468.037598 
	C810.822693,468.004608 811.453491,467.719666 812.084229,467.434753 
	C813.437012,467.340454 814.789734,467.246124 816.549927,467.193726 
z"/>
<path fill="#C73648" opacity="1.000000" stroke="none" 
	d="
M750.532593,491.902710 
	C754.904419,492.240143 758.841614,492.609039 762.640747,492.964996 
	C758.278076,499.282104 750.463135,497.257202 743.572876,498.975525 
	C743.143311,497.020630 743.122986,495.063141 743.135132,492.693756 
	C745.477783,492.165985 747.787903,492.050049 750.532593,491.902710 
z"/>
<path fill="#1F3D61" opacity="1.000000" stroke="none" 
	d="
M778.877991,451.731049 
	C782.880310,449.861328 786.698914,448.926453 789.674683,453.936523 
	C789.422974,454.817902 788.873901,455.556793 788.235229,456.598602 
	C785.387878,457.620483 782.630249,458.339447 779.495605,458.686340 
	C779.038452,456.119812 778.958191,453.925446 778.877991,451.731049 
z"/>
<path fill="#395A9E" opacity="1.000000" stroke="none" 
	d="
M768.613770,351.161499 
	C769.239014,351.415497 769.509766,351.697174 770.041565,352.118744 
	C762.326721,355.641724 754.350830,359.024841 746.375000,362.407959 
	C746.200439,361.997986 746.025940,361.588013 745.851440,361.178040 
	C753.320679,357.848419 760.789978,354.518799 768.613770,351.161499 
z"/>
<path fill="#395A9E" opacity="1.000000" stroke="none" 
	d="
M786.909119,481.686707 
	C783.868347,480.496063 780.896118,478.974701 776.640869,476.796570 
	C780.636597,476.992645 783.255554,477.121155 785.940918,477.591125 
	C785.760986,478.258484 785.233948,478.738678 785.314331,478.884979 
	C785.790649,479.751587 786.407837,480.540802 786.909119,481.686707 
z"/>
<path fill="#E66070" opacity="1.000000" stroke="none" 
	d="
M865.305786,502.901001 
	C866.236145,502.477966 867.508240,502.142395 868.913147,502.149353 
	C867.913208,502.657410 866.780334,502.822937 865.305786,502.901001 
z"/>
<path fill="#395A9E" opacity="1.000000" stroke="none" 
	d="
M742.896301,362.653076 
	C743.622498,362.251526 744.292480,362.113220 744.962402,361.974884 
	C744.999817,362.236328 745.037292,362.497742 745.074707,362.759155 
	C744.329773,362.811523 743.584900,362.863892 742.896301,362.653076 
z"/>
<path fill="#E66070" opacity="1.000000" stroke="none" 
	d="
M811.809265,467.339966 
	C811.453491,467.719666 810.822693,468.004608 810.082397,468.036621 
	C810.493347,467.604218 811.013855,467.424683 811.809265,467.339966 
z"/>
<path fill="#395A9E" opacity="1.000000" stroke="none" 
	d="
M787.795654,476.349457 
	C787.527954,476.281891 787.400208,475.945618 787.375000,475.349701 
	C787.630310,475.420288 787.782898,475.750519 787.795654,476.349457 
z"/>
<path fill="#EE828F" opacity="1.000000" stroke="none" 
	d="
M872.035522,452.695404 
	C872.189575,452.872711 871.751465,452.897278 871.751465,452.897278 
	C871.751465,452.897278 871.337708,452.751465 871.174927,452.606567 
	C871.316650,452.252075 871.606445,452.270874 872.035522,452.695404 
z"/>
<path fill="#244164" opacity="1.000000" stroke="none" 
	d="
M1131.467529,1250.687256 
	C1120.706665,1255.829224 1110.297607,1251.087646 1109.071289,1240.838379 
	C1108.240356,1233.893066 1112.012207,1227.798218 1118.449097,1225.685181 
	C1125.243408,1223.454712 1132.531738,1226.035767 1135.744873,1231.809937 
	C1139.240601,1238.092163 1137.709106,1245.314697 1131.467529,1250.687256 
z"/>
<path fill="#1F3D61" opacity="1.000000" stroke="none" 
	d="
M1078.977783,580.583252 
	C1079.385620,581.042786 1079.722534,581.882629 1080.059326,582.722412 
	C1079.675049,582.810120 1079.290894,582.897827 1078.906616,582.985535 
	C1078.906616,582.311523 1078.906616,581.637573 1078.977783,580.583252 
z"/>
<path fill="#244164" opacity="1.000000" stroke="none" 
	d="
M634.993896,1233.859863 
	C634.993408,1230.903687 634.993408,1228.421143 634.993408,1225.160278 
	C638.226868,1225.310303 641.532715,1224.768677 644.213928,1225.820068 
	C646.170959,1226.587280 648.380676,1229.400513 648.478333,1231.399292 
	C648.561829,1233.110474 646.132935,1235.754883 644.220032,1236.544067 
	C641.934998,1237.487061 639.006104,1237.037231 636.381165,1236.846436 
	C635.860718,1236.808472 635.453674,1235.211548 634.993896,1233.859863 
z"/>
<path fill="#244164" opacity="1.000000" stroke="none" 
	d="
M849.006592,1233.204346 
	C849.524719,1231.797241 849.935791,1230.736084 850.659180,1228.868530 
	C852.709351,1234.518433 854.500366,1239.453979 856.459167,1244.852051 
	C852.402405,1244.852051 848.860046,1244.852051 844.871948,1244.852051 
	C846.252319,1240.978516 847.575928,1237.264404 849.006592,1233.204346 
z"/>
<path fill="#244164" opacity="1.000000" stroke="none" 
	d="
M1335.114990,1241.219238 
	C1336.595459,1237.104004 1337.965332,1233.382935 1339.633423,1228.851440 
	C1341.686646,1234.477905 1343.482056,1239.397949 1345.457642,1244.811523 
	C1341.450195,1244.811523 1337.933105,1244.811523 1334.130371,1244.811523 
	C1334.425903,1243.729614 1334.715088,1242.671387 1335.114990,1241.219238 
z"/>
<path fill="#FEFEFE" opacity="1.000000" stroke="none" 
	d="
M904.351807,494.374084 
	C903.921814,494.814789 903.263977,495.011047 902.606079,495.207275 
	C902.535828,494.968323 902.465576,494.729401 902.395264,494.490479 
	C902.971436,494.370178 903.547668,494.249908 904.351807,494.374084 
z"/>
<path fill="#E66070" opacity="1.000000" stroke="none" 
	d="
M761.095215,508.691864 
	C760.541931,508.721558 760.153198,508.602600 759.764465,508.483643 
	C759.875061,508.386108 760.005188,508.190460 760.092896,508.207916 
	C760.488464,508.286682 760.871948,508.425812 761.095215,508.691864 
z"/>
<path fill="#395A9E" opacity="1.000000" stroke="none" 
	d="
M743.091736,462.057129 
	C743.526855,459.065491 741.052429,454.511963 747.095581,454.746704 
	C747.095581,453.430054 747.095581,452.314545 747.428284,450.604126 
	C750.161438,450.016327 752.561951,450.023407 754.962402,450.030487 
	C757.410461,449.672333 759.858582,449.314209 762.994751,448.938843 
	C764.457764,448.930084 765.232605,448.938477 766.357544,449.009491 
	C767.391602,450.261627 768.942139,451.869293 768.605774,452.566528 
	C767.317017,455.237335 768.453918,457.079681 769.527222,459.071716 
	C765.045654,460.101440 760.966492,461.388184 756.789368,461.962036 
	C753.116211,462.466675 748.882019,460.495758 746.434204,465.559631 
	C745.053589,464.112915 744.072632,463.085022 743.091736,462.057129 
z"/>
<path fill="#1F3D61" opacity="1.000000" stroke="none" 
	d="
M766.007446,448.946899 
	C765.232605,448.938477 764.457764,448.930084 763.296631,448.875793 
	C763.478271,446.817383 764.046265,444.804840 764.525879,443.105438 
	C766.697266,442.282074 768.817566,441.478119 770.995911,440.320282 
	C772.464661,440.252777 773.875305,440.539154 775.649902,440.857483 
	C774.676697,443.331573 773.339661,445.773682 771.632446,448.581055 
	C769.510681,448.946472 767.759094,448.946686 766.007446,448.946899 
z"/>
<path fill="#1F3D61" opacity="1.000000" stroke="none" 
	d="
M754.886719,449.681396 
	C752.561951,450.023407 750.161438,450.016327 747.467163,450.203979 
	C745.966309,450.545868 744.759216,450.693054 743.047729,450.901703 
	C743.047729,448.931824 743.047729,447.376312 743.105225,445.394226 
	C745.861267,444.486298 748.559753,444.004974 750.140564,443.722992 
	C751.956482,445.903931 753.383728,447.618134 754.886719,449.681396 
z"/>
<path fill="#1F3D61" opacity="1.000000" stroke="none" 
	d="
M743.638916,442.044800 
	C746.549133,440.995819 749.843933,439.935852 753.550659,438.937256 
	C750.649597,440.010345 747.336487,441.022095 743.638916,442.044800 
z"/>
<path fill="#254A95" opacity="1.000000" stroke="none" 
	d="
M743.027954,462.491730 
	C744.072632,463.085022 745.053589,464.112915 746.434204,465.559631 
	C748.882019,460.495758 753.116211,462.466675 756.789368,461.962036 
	C760.966492,461.388184 765.045654,460.101440 769.874634,459.073730 
	C771.413330,459.299438 772.244751,459.576050 773.076233,459.852631 
	C772.459473,462.287170 771.842712,464.721710 771.371277,466.582855 
	C761.858826,466.213501 752.888062,468.105255 743.521851,469.970612 
	C743.073914,467.619446 743.019043,465.272888 743.027954,462.491730 
z"/>
<path fill="#FEFEFE" opacity="1.000000" stroke="none" 
	d="
M791.252808,472.932922 
	C791.018188,472.443481 791.105774,471.879761 791.464111,471.152435 
	C791.681519,471.612122 791.628235,472.235352 791.252808,472.932922 
z"/>
<path fill="#061553" opacity="1.000000" stroke="none" 
	d="
M773.389893,459.876556 
	C772.244751,459.576050 771.413330,459.299438 770.234436,459.020844 
	C768.453918,457.079681 767.317017,455.237335 768.605774,452.566528 
	C768.942139,451.869293 767.391602,450.261627 766.357544,449.009491 
	C767.759094,448.946686 769.510681,448.946472 771.631348,448.968292 
	C771.702820,449.710815 771.405273,450.431366 771.099426,451.171906 
	C773.586914,451.425049 775.865234,451.656891 778.510742,451.809875 
	C778.958191,453.925446 779.038452,456.119812 779.158691,458.706848 
	C779.198792,459.099487 779.147034,459.151703 778.750061,459.114929 
	C777.221680,459.329895 776.090271,459.581635 774.958923,459.833374 
	C774.540466,459.855774 774.122009,459.878143 773.389893,459.876556 
z"/>
<path fill="#1F3D61" opacity="1.000000" stroke="none" 
	d="
M749.299683,475.113342 
	C752.246033,474.542480 755.041992,474.355896 757.838013,474.169312 
	C753.541565,478.547180 750.685486,478.541504 749.299683,475.113342 
z"/>
<path fill="#1F3D61" opacity="1.000000" stroke="none" 
	d="
M775.295288,459.895294 
	C776.090271,459.581635 777.221680,459.329895 778.717529,459.132111 
	C777.931885,459.443115 776.781738,459.700165 775.295288,459.895294 
z"/>
<path fill="#395A9E" opacity="1.000000" stroke="none" 
	d="
M770.258362,482.214905 
	C768.878296,481.363525 767.838074,480.520782 766.523987,479.456177 
	C770.867920,477.659515 770.867920,477.659515 770.258362,482.214905 
z"/>
<path fill="#395A9E" opacity="1.000000" stroke="none" 
	d="
M765.465820,477.446747 
	C765.526672,477.410645 765.404907,477.482849 765.465820,477.446747 
z"/>
<path fill="#C73648" opacity="1.000000" stroke="none" 
	d="
M809.312012,444.043793 
	C807.453430,443.927429 806.042358,443.816406 803.994873,443.655304 
	C808.718445,435.798340 815.072205,443.721375 819.919678,441.196930 
	C817.669189,446.067108 813.149902,443.145477 809.312012,444.043793 
z"/>
<path fill="#EE828F" opacity="1.000000" stroke="none" 
	d="
M815.528809,455.002441 
	C816.035217,455.021576 816.222473,454.989685 816.351440,455.061890 
	C816.576782,455.187958 816.766296,455.378021 816.970825,455.541260 
	C815.298462,455.699524 813.626099,455.857788 811.953735,456.016022 
	C811.943054,455.743713 811.932434,455.471375 811.921753,455.199036 
	C813.008972,455.132141 814.096252,455.065247 815.528809,455.002441 
z"/>
<path fill="#FEFEFE" opacity="1.000000" stroke="none" 
	d="
M834.651611,443.698395 
	C835.643555,443.386871 836.772095,443.386871 837.900574,443.386871 
	C837.829285,443.842773 837.758057,444.298676 837.686768,444.754578 
	C836.720581,444.506348 835.754395,444.258118 834.651611,443.698395 
z"/>
</svg>